<?xml version="1.0" encoding="utf-8"?>
<!-- Generator: Adobe Illustrator 18.0.0, SVG Export Plug-In . SVG Version: 6.00 Build 0)  -->
<!DOCTYPE svg PUBLIC "-//W3C//DTD SVG 1.1//EN" "http://www.w3.org/Graphics/SVG/1.1/DTD/svg11.dtd">
<svg version="1.1" id="图层_1" xmlns="http://www.w3.org/2000/svg" xmlns:xlink="http://www.w3.org/1999/xlink" x="0px" y="0px"
	 width="826.3px" height="826.8px" viewBox="0 0 826.3 826.8" enable-background="new 0 0 826.3 826.8" xml:space="preserve">
<g>
	<defs>
		<path id="SVGID_1_" d="M86.9,151.8c-34.2,0-61.9-27.8-61.9-61.9S52.7,28,86.9,28s61.9,27.8,61.9,61.9S121,151.8,86.9,151.8z
			 M86.9,36c-29.7,0-53.9,24.2-53.9,53.9s24.2,53.9,53.9,53.9s53.9-24.2,53.9-53.9S116.6,36,86.9,36z M216.9,151.8
			c-34.2,0-61.9-27.8-61.9-61.9S182.7,28,216.9,28s61.9,27.8,61.9,61.9S251,151.8,216.9,151.8z M216.9,36
			c-29.7,0-53.9,24.2-53.9,53.9s24.2,53.9,53.9,53.9s53.9-24.2,53.9-53.9S246.6,36,216.9,36z M346.9,151.8
			c-34.2,0-61.9-27.8-61.9-61.9S312.7,28,346.9,28s61.9,27.8,61.9,61.9S381,151.8,346.9,151.8z M346.9,36
			c-29.7,0-53.9,24.2-53.9,53.9s24.2,53.9,53.9,53.9s53.9-24.2,53.9-53.9S376.6,36,346.9,36z M476.9,151.8
			c-34.2,0-61.9-27.8-61.9-61.9S442.7,28,476.9,28s61.9,27.8,61.9,61.9S511,151.8,476.9,151.8z M476.9,36
			c-29.7,0-53.9,24.2-53.9,53.9s24.2,53.9,53.9,53.9s53.9-24.2,53.9-53.9S506.6,36,476.9,36z M606.9,151.8
			c-34.2,0-61.9-27.8-61.9-61.9S572.7,28,606.9,28s61.9,27.8,61.9,61.9S641,151.8,606.9,151.8z M606.9,36
			c-29.7,0-53.9,24.2-53.9,53.9s24.2,53.9,53.9,53.9s53.9-24.2,53.9-53.9S636.6,36,606.9,36z M736.9,151.8
			c-34.2,0-61.9-27.8-61.9-61.9S702.7,28,736.9,28s61.9,27.8,61.9,61.9S771,151.8,736.9,151.8z M736.9,36
			c-29.7,0-53.9,24.2-53.9,53.9s24.2,53.9,53.9,53.9s53.9-24.2,53.9-53.9S766.6,36,736.9,36z M86.9,281.8
			c-34.2,0-61.9-27.8-61.9-61.9S52.7,158,86.9,158s61.9,27.8,61.9,61.9S121,281.8,86.9,281.8z M86.9,166
			c-29.7,0-53.9,24.2-53.9,53.9s24.2,53.9,53.9,53.9s53.9-24.2,53.9-53.9S116.6,166,86.9,166z M216.9,281.8
			c-34.2,0-61.9-27.8-61.9-61.9s27.8-61.9,61.9-61.9s61.9,27.8,61.9,61.9S251,281.8,216.9,281.8z M216.9,166
			c-29.7,0-53.9,24.2-53.9,53.9s24.2,53.9,53.9,53.9s53.9-24.2,53.9-53.9S246.6,166,216.9,166z M346.9,281.8
			c-34.2,0-61.9-27.8-61.9-61.9s27.8-61.9,61.9-61.9s61.9,27.8,61.9,61.9S381,281.8,346.9,281.8z M346.9,166
			c-29.7,0-53.9,24.2-53.9,53.9s24.2,53.9,53.9,53.9s53.9-24.2,53.9-53.9S376.6,166,346.9,166z M476.9,281.8
			c-34.2,0-61.9-27.8-61.9-61.9s27.8-61.9,61.9-61.9s61.9,27.8,61.9,61.9S511,281.8,476.9,281.8z M476.9,166
			c-29.7,0-53.9,24.2-53.9,53.9s24.2,53.9,53.9,53.9s53.9-24.2,53.9-53.9S506.6,166,476.9,166z M606.9,281.8
			c-34.2,0-61.9-27.8-61.9-61.9s27.8-61.9,61.9-61.9s61.9,27.8,61.9,61.9S641,281.8,606.9,281.8z M606.9,166
			c-29.7,0-53.9,24.2-53.9,53.9s24.2,53.9,53.9,53.9s53.9-24.2,53.9-53.9S636.6,166,606.9,166z M736.9,281.8
			c-34.2,0-61.9-27.8-61.9-61.9s27.8-61.9,61.9-61.9s61.9,27.8,61.9,61.9S771,281.8,736.9,281.8z M736.9,166
			c-29.7,0-53.9,24.2-53.9,53.9s24.2,53.9,53.9,53.9s53.9-24.2,53.9-53.9S766.6,166,736.9,166z M86.9,411.8
			c-34.2,0-61.9-27.8-61.9-61.9S52.7,288,86.9,288s61.9,27.8,61.9,61.9S121,411.8,86.9,411.8z M86.9,296
			c-29.7,0-53.9,24.2-53.9,53.9s24.2,53.9,53.9,53.9s53.9-24.2,53.9-53.9S116.6,296,86.9,296z M216.9,411.8
			c-34.2,0-61.9-27.8-61.9-61.9s27.8-61.9,61.9-61.9s61.9,27.8,61.9,61.9S251,411.8,216.9,411.8z M216.9,296
			c-29.7,0-53.9,24.2-53.9,53.9s24.2,53.9,53.9,53.9s53.9-24.2,53.9-53.9S246.6,296,216.9,296z M346.9,411.8
			c-34.2,0-61.9-27.8-61.9-61.9s27.8-61.9,61.9-61.9s61.9,27.8,61.9,61.9S381,411.8,346.9,411.8z M346.9,296
			c-29.7,0-53.9,24.2-53.9,53.9s24.2,53.9,53.9,53.9s53.9-24.2,53.9-53.9S376.6,296,346.9,296z M476.9,411.8
			c-34.2,0-61.9-27.8-61.9-61.9s27.8-61.9,61.9-61.9s61.9,27.8,61.9,61.9S511,411.8,476.9,411.8z M476.9,296
			c-29.7,0-53.9,24.2-53.9,53.9s24.2,53.9,53.9,53.9s53.9-24.2,53.9-53.9S506.6,296,476.9,296z M606.9,411.8
			c-34.2,0-61.9-27.8-61.9-61.9s27.8-61.9,61.9-61.9s61.9,27.8,61.9,61.9S641,411.8,606.9,411.8z M606.9,296
			c-29.7,0-53.9,24.2-53.9,53.9s24.2,53.9,53.9,53.9s53.9-24.2,53.9-53.9S636.6,296,606.9,296z M736.9,411.8
			c-34.2,0-61.9-27.8-61.9-61.9s27.8-61.9,61.9-61.9s61.9,27.8,61.9,61.9S771,411.8,736.9,411.8z M736.9,296
			c-29.7,0-53.9,24.2-53.9,53.9s24.2,53.9,53.9,53.9s53.9-24.2,53.9-53.9S766.6,296,736.9,296z M86.9,541.8
			c-34.2,0-61.9-27.8-61.9-61.9S52.7,418,86.9,418s61.9,27.8,61.9,61.9S121,541.8,86.9,541.8z M86.9,426
			c-29.7,0-53.9,24.2-53.9,53.9s24.2,53.9,53.9,53.9s53.9-24.2,53.9-53.9S116.6,426,86.9,426z M216.9,541.8
			c-34.2,0-61.9-27.8-61.9-61.9s27.8-61.9,61.9-61.9s61.9,27.8,61.9,61.9S251,541.8,216.9,541.8z M216.9,426
			c-29.7,0-53.9,24.2-53.9,53.9s24.2,53.9,53.9,53.9s53.9-24.2,53.9-53.9S246.6,426,216.9,426z M346.9,541.8
			c-34.2,0-61.9-27.8-61.9-61.9s27.8-61.9,61.9-61.9s61.9,27.8,61.9,61.9S381,541.8,346.9,541.8z M346.9,426
			c-29.7,0-53.9,24.2-53.9,53.9s24.2,53.9,53.9,53.9s53.9-24.2,53.9-53.9S376.6,426,346.9,426z M476.9,541.8
			c-34.2,0-61.9-27.8-61.9-61.9s27.8-61.9,61.9-61.9s61.9,27.8,61.9,61.9S511,541.8,476.9,541.8z M476.9,426
			c-29.7,0-53.9,24.2-53.9,53.9s24.2,53.9,53.9,53.9s53.9-24.2,53.9-53.9S506.6,426,476.9,426z M606.9,541.8
			c-34.2,0-61.9-27.8-61.9-61.9s27.8-61.9,61.9-61.9s61.9,27.8,61.9,61.9S641,541.8,606.9,541.8z M606.9,426
			c-29.7,0-53.9,24.2-53.9,53.9s24.2,53.9,53.9,53.9s53.9-24.2,53.9-53.9S636.6,426,606.9,426z M736.9,541.8
			c-34.2,0-61.9-27.8-61.9-61.9s27.8-61.9,61.9-61.9s61.9,27.8,61.9,61.9S771,541.8,736.9,541.8z M736.9,426
			c-29.7,0-53.9,24.2-53.9,53.9s24.2,53.9,53.9,53.9s53.9-24.2,53.9-53.9S766.6,426,736.9,426z M86.9,671.8
			c-34.2,0-61.9-27.8-61.9-61.9S52.7,548,86.9,548s61.9,27.8,61.9,61.9S121,671.8,86.9,671.8z M86.9,556
			c-29.7,0-53.9,24.2-53.9,53.9s24.2,53.9,53.9,53.9s53.9-24.2,53.9-53.9S116.6,556,86.9,556z M216.9,671.8
			c-34.2,0-61.9-27.8-61.9-61.9s27.8-61.9,61.9-61.9s61.9,27.8,61.9,61.9S251,671.8,216.9,671.8z M216.9,556
			c-29.7,0-53.9,24.2-53.9,53.9s24.2,53.9,53.9,53.9s53.9-24.2,53.9-53.9S246.6,556,216.9,556z M346.9,671.8
			c-34.2,0-61.9-27.8-61.9-61.9s27.8-61.9,61.9-61.9s61.9,27.8,61.9,61.9S381,671.8,346.9,671.8z M346.9,556
			c-29.7,0-53.9,24.2-53.9,53.9s24.2,53.9,53.9,53.9s53.9-24.2,53.9-53.9S376.6,556,346.9,556z M476.9,671.8
			c-34.2,0-61.9-27.8-61.9-61.9s27.8-61.9,61.9-61.9s61.9,27.8,61.9,61.9S511,671.8,476.9,671.8z M476.9,556
			c-29.7,0-53.9,24.2-53.9,53.9s24.2,53.9,53.9,53.9s53.9-24.2,53.9-53.9S506.6,556,476.9,556z M606.9,671.8
			c-34.2,0-61.9-27.8-61.9-61.9s27.8-61.9,61.9-61.9s61.9,27.8,61.9,61.9S641,671.8,606.9,671.8z M606.9,556
			c-29.7,0-53.9,24.2-53.9,53.9s24.2,53.9,53.9,53.9s53.9-24.2,53.9-53.9S636.6,556,606.9,556z M736.9,671.8
			c-34.2,0-61.9-27.8-61.9-61.9s27.8-61.9,61.9-61.9s61.9,27.8,61.9,61.9S771,671.8,736.9,671.8z M736.9,556
			c-29.7,0-53.9,24.2-53.9,53.9s24.2,53.9,53.9,53.9s53.9-24.2,53.9-53.9S766.6,556,736.9,556z M86.9,801.8
			c-34.2,0-61.9-27.8-61.9-61.9S52.7,678,86.9,678s61.9,27.8,61.9,61.9S121,801.8,86.9,801.8z M86.9,686
			c-29.7,0-53.9,24.2-53.9,53.9s24.2,53.9,53.9,53.9s53.9-24.2,53.9-53.9S116.6,686,86.9,686z M216.9,801.8
			c-34.2,0-61.9-27.8-61.9-61.9s27.8-61.9,61.9-61.9s61.9,27.8,61.9,61.9S251,801.8,216.9,801.8z M216.9,686
			c-29.7,0-53.9,24.2-53.9,53.9s24.2,53.9,53.9,53.9s53.9-24.2,53.9-53.9S246.6,686,216.9,686z M346.9,801.8
			c-34.2,0-61.9-27.8-61.9-61.9s27.8-61.9,61.9-61.9s61.9,27.8,61.9,61.9S381,801.8,346.9,801.8z M346.9,686
			c-29.7,0-53.9,24.2-53.9,53.9s24.2,53.9,53.9,53.9s53.9-24.2,53.9-53.9S376.6,686,346.9,686z M476.9,801.8
			c-34.2,0-61.9-27.8-61.9-61.9s27.8-61.9,61.9-61.9s61.9,27.8,61.9,61.9S511,801.8,476.9,801.8z M476.9,686
			c-29.7,0-53.9,24.2-53.9,53.9s24.2,53.9,53.9,53.9s53.9-24.2,53.9-53.9S506.6,686,476.9,686z M606.9,801.8
			c-34.2,0-61.9-27.8-61.9-61.9s27.8-61.9,61.9-61.9s61.9,27.8,61.9,61.9S641,801.8,606.9,801.8z M606.9,686
			c-29.7,0-53.9,24.2-53.9,53.9s24.2,53.9,53.9,53.9s53.9-24.2,53.9-53.9S636.6,686,606.9,686z M736.9,801.8
			c-34.2,0-61.9-27.8-61.9-61.9s27.8-61.9,61.9-61.9s61.9,27.8,61.9,61.9S771,801.8,736.9,801.8z M736.9,686
			c-29.7,0-53.9,24.2-53.9,53.9s24.2,53.9,53.9,53.9s53.9-24.2,53.9-53.9S766.6,686,736.9,686z"/>
	</defs>
	<clipPath id="SVGID_2_">
		<use xlink:href="#SVGID_1_"  overflow="visible"/>
	</clipPath>
	<linearGradient id="SVGID_3_" gradientUnits="userSpaceOnUse" x1="134.9343" y1="-64.2627" x2="685.7587" y2="889.7933">
		<stop  offset="0" style="stop-color:#FF7832"/>
		<stop  offset="0.3072" style="stop-color:#F7FF01"/>
		<stop  offset="0.5451" style="stop-color:#12FF30"/>
		<stop  offset="0.8062" style="stop-color:#40CBFF"/>
		<stop  offset="1" style="stop-color:#4C47FF"/>
	</linearGradient>
	<path clip-path="url(#SVGID_2_)" fill="url(#SVGID_3_)" d="M789.5,823.5H31.2c-22.7,0-41.2-18.6-41.2-41.2V43.2
		C-10.1,20.5,8.5,2,31.2,2h758.3c22.7,0,41.2,18.6,41.2,41.2v739.1C830.8,805,812.2,823.5,789.5,823.5z"/>
</g>
</svg>
