<?xml version="1.0" encoding="utf-8"?>
<!-- Generator: Adobe Illustrator 18.0.0, SVG Export Plug-In . SVG Version: 6.00 Build 0)  -->
<!DOCTYPE svg PUBLIC "-//W3C//DTD SVG 1.1//EN" "http://www.w3.org/Graphics/SVG/1.1/DTD/svg11.dtd">
<svg version="1.1" id="图层_1" xmlns="http://www.w3.org/2000/svg" xmlns:xlink="http://www.w3.org/1999/xlink" x="0px" y="0px"
	 width="826.3px" height="826.8px" viewBox="0 0 826.3 826.8" enable-background="new 0 0 826.3 826.8" xml:space="preserve">
<rect x="-373.7" y="-2246.1" fill="#4FBDDB" width="1600.5" height="1020.6"/>
<path fill="#FFFFFF" d="M-308.4-239h-743.5c-22.7,0-41.2-18.6-41.2-41.2v-741.8c0-22.7,18.6-41.2,41.2-41.2h743.5
	c22.7,0,41.2,18.6,41.2,41.2v741.8C-267.1-257.6-285.7-239-308.4-239z"/>
<path fill="#E2E2E2" d="M-1006.9-911.2c-34.2,0-61.9-27.8-61.9-61.9s27.8-61.9,61.9-61.9c34.2,0,61.9,27.8,61.9,61.9
	S-972.7-911.2-1006.9-911.2z M-1006.9-1027c-29.7,0-53.9,24.2-53.9,53.9s24.2,53.9,53.9,53.9c29.7,0,53.9-24.2,53.9-53.9
	S-977.1-1027-1006.9-1027z M-876.9-911.2c-34.2,0-61.9-27.8-61.9-61.9s27.8-61.9,61.9-61.9s61.9,27.8,61.9,61.9
	S-842.7-911.2-876.9-911.2z M-876.9-1027c-29.7,0-53.9,24.2-53.9,53.9s24.2,53.9,53.9,53.9s53.9-24.2,53.9-53.9
	S-847.1-1027-876.9-1027z M-746.9-911.2c-34.2,0-61.9-27.8-61.9-61.9s27.8-61.9,61.9-61.9s61.9,27.8,61.9,61.9
	S-712.7-911.2-746.9-911.2z M-746.9-1027c-29.7,0-53.9,24.2-53.9,53.9s24.2,53.9,53.9,53.9s53.9-24.2,53.9-53.9
	S-717.1-1027-746.9-1027z M-616.9-911.2c-34.2,0-61.9-27.8-61.9-61.9s27.8-61.9,61.9-61.9s61.9,27.8,61.9,61.9
	S-582.7-911.2-616.9-911.2z M-616.9-1027c-29.7,0-53.9,24.2-53.9,53.9s24.2,53.9,53.9,53.9s53.9-24.2,53.9-53.9
	S-587.1-1027-616.9-1027z M-486.9-911.2c-34.2,0-61.9-27.8-61.9-61.9s27.8-61.9,61.9-61.9s61.9,27.8,61.9,61.9
	S-452.7-911.2-486.9-911.2z M-486.9-1027c-29.7,0-53.9,24.2-53.9,53.9s24.2,53.9,53.9,53.9s53.9-24.2,53.9-53.9
	S-457.1-1027-486.9-1027z M-356.9-911.2c-34.2,0-61.9-27.8-61.9-61.9s27.8-61.9,61.9-61.9s61.9,27.8,61.9,61.9
	S-322.7-911.2-356.9-911.2z M-356.9-1027c-29.7,0-53.9,24.2-53.9,53.9s24.2,53.9,53.9,53.9s53.9-24.2,53.9-53.9
	S-327.1-1027-356.9-1027z M-1006.9-781.2c-34.2,0-61.9-27.8-61.9-61.9s27.8-61.9,61.9-61.9c34.2,0,61.9,27.8,61.9,61.9
	S-972.7-781.2-1006.9-781.2z M-1006.9-897c-29.7,0-53.9,24.2-53.9,53.9s24.2,53.9,53.9,53.9c29.7,0,53.9-24.2,53.9-53.9
	S-977.1-897-1006.9-897z M-876.9-781.2c-34.2,0-61.9-27.8-61.9-61.9S-911-905-876.9-905s61.9,27.8,61.9,61.9
	S-842.7-781.2-876.9-781.2z M-876.9-897c-29.7,0-53.9,24.2-53.9,53.9s24.2,53.9,53.9,53.9s53.9-24.2,53.9-53.9S-847.1-897-876.9-897
	z M-746.9-781.2c-34.2,0-61.9-27.8-61.9-61.9S-781-905-746.9-905s61.9,27.8,61.9,61.9S-712.7-781.2-746.9-781.2z M-746.9-897
	c-29.7,0-53.9,24.2-53.9,53.9s24.2,53.9,53.9,53.9s53.9-24.2,53.9-53.9S-717.1-897-746.9-897z M-616.9-781.2
	c-34.2,0-61.9-27.8-61.9-61.9S-651-905-616.9-905s61.9,27.8,61.9,61.9S-582.7-781.2-616.9-781.2z M-616.9-897
	c-29.7,0-53.9,24.2-53.9,53.9s24.2,53.9,53.9,53.9s53.9-24.2,53.9-53.9S-587.1-897-616.9-897z M-486.9-781.2
	c-34.2,0-61.9-27.8-61.9-61.9S-521-905-486.9-905s61.9,27.8,61.9,61.9S-452.7-781.2-486.9-781.2z M-486.9-897
	c-29.7,0-53.9,24.2-53.9,53.9s24.2,53.9,53.9,53.9s53.9-24.2,53.9-53.9S-457.1-897-486.9-897z M-356.9-781.2
	c-34.2,0-61.9-27.8-61.9-61.9S-391-905-356.9-905s61.9,27.8,61.9,61.9S-322.7-781.2-356.9-781.2z M-356.9-897
	c-29.7,0-53.9,24.2-53.9,53.9s24.2,53.9,53.9,53.9s53.9-24.2,53.9-53.9S-327.1-897-356.9-897z M-1006.9-651.2
	c-34.2,0-61.9-27.8-61.9-61.9s27.8-61.9,61.9-61.9c34.2,0,61.9,27.8,61.9,61.9S-972.7-651.2-1006.9-651.2z M-1006.9-767
	c-29.7,0-53.9,24.2-53.9,53.9s24.2,53.9,53.9,53.9c29.7,0,53.9-24.2,53.9-53.9S-977.1-767-1006.9-767z M-876.9-651.2
	c-34.2,0-61.9-27.8-61.9-61.9S-911-775-876.9-775s61.9,27.8,61.9,61.9S-842.7-651.2-876.9-651.2z M-876.9-767
	c-29.7,0-53.9,24.2-53.9,53.9s24.2,53.9,53.9,53.9s53.9-24.2,53.9-53.9S-847.1-767-876.9-767z M-746.9-651.2
	c-34.2,0-61.9-27.8-61.9-61.9S-781-775-746.9-775s61.9,27.8,61.9,61.9S-712.7-651.2-746.9-651.2z M-746.9-767
	c-29.7,0-53.9,24.2-53.9,53.9s24.2,53.9,53.9,53.9s53.9-24.2,53.9-53.9S-717.1-767-746.9-767z M-616.9-651.2
	c-34.2,0-61.9-27.8-61.9-61.9S-651-775-616.9-775s61.9,27.8,61.9,61.9S-582.7-651.2-616.9-651.2z M-616.9-767
	c-29.7,0-53.9,24.2-53.9,53.9s24.2,53.9,53.9,53.9s53.9-24.2,53.9-53.9S-587.1-767-616.9-767z M-486.9-651.2
	c-34.2,0-61.9-27.8-61.9-61.9S-521-775-486.9-775s61.9,27.8,61.9,61.9S-452.7-651.2-486.9-651.2z M-486.9-767
	c-29.7,0-53.9,24.2-53.9,53.9s24.2,53.9,53.9,53.9s53.9-24.2,53.9-53.9S-457.1-767-486.9-767z M-356.9-651.2
	c-34.2,0-61.9-27.8-61.9-61.9S-391-775-356.9-775s61.9,27.8,61.9,61.9S-322.7-651.2-356.9-651.2z M-356.9-767
	c-29.7,0-53.9,24.2-53.9,53.9s24.2,53.9,53.9,53.9s53.9-24.2,53.9-53.9S-327.1-767-356.9-767z M-1006.9-521.2
	c-34.2,0-61.9-27.8-61.9-61.9s27.8-61.9,61.9-61.9c34.2,0,61.9,27.8,61.9,61.9S-972.7-521.2-1006.9-521.2z M-1006.9-637
	c-29.7,0-53.9,24.2-53.9,53.9s24.2,53.9,53.9,53.9c29.7,0,53.9-24.2,53.9-53.9S-977.1-637-1006.9-637z M-876.9-521.2
	c-34.2,0-61.9-27.8-61.9-61.9S-911-645-876.9-645s61.9,27.8,61.9,61.9S-842.7-521.2-876.9-521.2z M-876.9-637
	c-29.7,0-53.9,24.2-53.9,53.9s24.2,53.9,53.9,53.9s53.9-24.2,53.9-53.9S-847.1-637-876.9-637z M-746.9-521.2
	c-34.2,0-61.9-27.8-61.9-61.9S-781-645-746.9-645s61.9,27.8,61.9,61.9S-712.7-521.2-746.9-521.2z M-746.9-637
	c-29.7,0-53.9,24.2-53.9,53.9s24.2,53.9,53.9,53.9s53.9-24.2,53.9-53.9S-717.1-637-746.9-637z M-616.9-521.2
	c-34.2,0-61.9-27.8-61.9-61.9S-651-645-616.9-645s61.9,27.8,61.9,61.9S-582.7-521.2-616.9-521.2z M-616.9-637
	c-29.7,0-53.9,24.2-53.9,53.9s24.2,53.9,53.9,53.9s53.9-24.2,53.9-53.9S-587.1-637-616.9-637z M-486.9-521.2
	c-34.2,0-61.9-27.8-61.9-61.9S-521-645-486.9-645s61.9,27.8,61.9,61.9S-452.7-521.2-486.9-521.2z M-486.9-637
	c-29.7,0-53.9,24.2-53.9,53.9s24.2,53.9,53.9,53.9s53.9-24.2,53.9-53.9S-457.1-637-486.9-637z M-356.9-521.2
	c-34.2,0-61.9-27.8-61.9-61.9S-391-645-356.9-645s61.9,27.8,61.9,61.9S-322.7-521.2-356.9-521.2z M-356.9-637
	c-29.7,0-53.9,24.2-53.9,53.9s24.2,53.9,53.9,53.9s53.9-24.2,53.9-53.9S-327.1-637-356.9-637z M-1006.9-391.2
	c-34.2,0-61.9-27.8-61.9-61.9s27.8-61.9,61.9-61.9c34.2,0,61.9,27.8,61.9,61.9S-972.7-391.2-1006.9-391.2z M-1006.9-507
	c-29.7,0-53.9,24.2-53.9,53.9s24.2,53.9,53.9,53.9c29.7,0,53.9-24.2,53.9-53.9S-977.1-507-1006.9-507z M-876.9-391.2
	c-34.2,0-61.9-27.8-61.9-61.9S-911-515-876.9-515s61.9,27.8,61.9,61.9S-842.7-391.2-876.9-391.2z M-876.9-507
	c-29.7,0-53.9,24.2-53.9,53.9s24.2,53.9,53.9,53.9s53.9-24.2,53.9-53.9S-847.1-507-876.9-507z M-746.9-391.2
	c-34.2,0-61.9-27.8-61.9-61.9S-781-515-746.9-515s61.9,27.8,61.9,61.9S-712.7-391.2-746.9-391.2z M-746.9-507
	c-29.7,0-53.9,24.2-53.9,53.9s24.2,53.9,53.9,53.9s53.9-24.2,53.9-53.9S-717.1-507-746.9-507z M-616.9-391.2
	c-34.2,0-61.9-27.8-61.9-61.9S-651-515-616.9-515s61.9,27.8,61.9,61.9S-582.7-391.2-616.9-391.2z M-616.9-507
	c-29.7,0-53.9,24.2-53.9,53.9s24.2,53.9,53.9,53.9s53.9-24.2,53.9-53.9S-587.1-507-616.9-507z M-486.9-391.2
	c-34.2,0-61.9-27.8-61.9-61.9S-521-515-486.9-515s61.9,27.8,61.9,61.9S-452.7-391.2-486.9-391.2z M-486.9-507
	c-29.7,0-53.9,24.2-53.9,53.9s24.2,53.9,53.9,53.9s53.9-24.2,53.9-53.9S-457.1-507-486.9-507z M-356.9-391.2
	c-34.2,0-61.9-27.8-61.9-61.9S-391-515-356.9-515s61.9,27.8,61.9,61.9S-322.7-391.2-356.9-391.2z M-356.9-507
	c-29.7,0-53.9,24.2-53.9,53.9s24.2,53.9,53.9,53.9s53.9-24.2,53.9-53.9S-327.1-507-356.9-507z M-1006.9-261.2
	c-34.2,0-61.9-27.8-61.9-61.9s27.8-61.9,61.9-61.9c34.2,0,61.9,27.8,61.9,61.9S-972.7-261.2-1006.9-261.2z M-1006.9-377
	c-29.7,0-53.9,24.2-53.9,53.9s24.2,53.9,53.9,53.9c29.7,0,53.9-24.2,53.9-53.9S-977.1-377-1006.9-377z M-876.9-261.2
	c-34.2,0-61.9-27.8-61.9-61.9S-911-385-876.9-385s61.9,27.8,61.9,61.9S-842.7-261.2-876.9-261.2z M-876.9-377
	c-29.7,0-53.9,24.2-53.9,53.9s24.2,53.9,53.9,53.9s53.9-24.2,53.9-53.9S-847.1-377-876.9-377z M-746.9-261.2
	c-34.2,0-61.9-27.8-61.9-61.9S-781-385-746.9-385s61.9,27.8,61.9,61.9S-712.7-261.2-746.9-261.2z M-746.9-377
	c-29.7,0-53.9,24.2-53.9,53.9s24.2,53.9,53.9,53.9s53.9-24.2,53.9-53.9S-717.1-377-746.9-377z M-616.9-261.2
	c-34.2,0-61.9-27.8-61.9-61.9S-651-385-616.9-385s61.9,27.8,61.9,61.9S-582.7-261.2-616.9-261.2z M-616.9-377
	c-29.7,0-53.9,24.2-53.9,53.9s24.2,53.9,53.9,53.9s53.9-24.2,53.9-53.9S-587.1-377-616.9-377z M-486.9-261.2
	c-34.2,0-61.9-27.8-61.9-61.9S-521-385-486.9-385s61.9,27.8,61.9,61.9S-452.7-261.2-486.9-261.2z M-486.9-377
	c-29.7,0-53.9,24.2-53.9,53.9s24.2,53.9,53.9,53.9s53.9-24.2,53.9-53.9S-457.1-377-486.9-377z M-356.9-261.2
	c-34.2,0-61.9-27.8-61.9-61.9S-391-385-356.9-385s61.9,27.8,61.9,61.9S-322.7-261.2-356.9-261.2z M-356.9-377
	c-29.7,0-53.9,24.2-53.9,53.9s24.2,53.9,53.9,53.9s53.9-24.2,53.9-53.9S-327.1-377-356.9-377z"/>
<g>
	<defs>
		<path id="SVGID_1_" d="M-746.9-911.2c-34.2,0-61.9-27.8-61.9-61.9s27.8-61.9,61.9-61.9s61.9,27.8,61.9,61.9
			S-712.7-911.2-746.9-911.2z M-746.9-1027c-29.7,0-53.9,24.2-53.9,53.9s24.2,53.9,53.9,53.9s53.9-24.2,53.9-53.9
			S-717.1-1027-746.9-1027z M-356.9-911.2c-34.2,0-61.9-27.8-61.9-61.9s27.8-61.9,61.9-61.9s61.9,27.8,61.9,61.9
			S-322.7-911.2-356.9-911.2z M-356.9-1027c-29.7,0-53.9,24.2-53.9,53.9s24.2,53.9,53.9,53.9s53.9-24.2,53.9-53.9
			S-327.1-1027-356.9-1027z M-1006.9-781.2c-34.2,0-61.9-27.8-61.9-61.9s27.8-61.9,61.9-61.9c34.2,0,61.9,27.8,61.9,61.9
			S-972.7-781.2-1006.9-781.2z M-1006.9-897c-29.7,0-53.9,24.2-53.9,53.9s24.2,53.9,53.9,53.9c29.7,0,53.9-24.2,53.9-53.9
			S-977.1-897-1006.9-897z M-746.9-781.2c-34.2,0-61.9-27.8-61.9-61.9S-781-905-746.9-905s61.9,27.8,61.9,61.9
			S-712.7-781.2-746.9-781.2z M-746.9-897c-29.7,0-53.9,24.2-53.9,53.9s24.2,53.9,53.9,53.9s53.9-24.2,53.9-53.9
			S-717.1-897-746.9-897z M-486.9-781.2c-34.2,0-61.9-27.8-61.9-61.9S-521-905-486.9-905s61.9,27.8,61.9,61.9
			S-452.7-781.2-486.9-781.2z M-486.9-897c-29.7,0-53.9,24.2-53.9,53.9s24.2,53.9,53.9,53.9s53.9-24.2,53.9-53.9
			S-457.1-897-486.9-897z M-616.9-651.2c-34.2,0-61.9-27.8-61.9-61.9S-651-775-616.9-775s61.9,27.8,61.9,61.9
			S-582.7-651.2-616.9-651.2z M-616.9-767c-29.7,0-53.9,24.2-53.9,53.9s24.2,53.9,53.9,53.9s53.9-24.2,53.9-53.9
			S-587.1-767-616.9-767z M-1006.9-521.2c-34.2,0-61.9-27.8-61.9-61.9s27.8-61.9,61.9-61.9c34.2,0,61.9,27.8,61.9,61.9
			S-972.7-521.2-1006.9-521.2z M-1006.9-637c-29.7,0-53.9,24.2-53.9,53.9s24.2,53.9,53.9,53.9c29.7,0,53.9-24.2,53.9-53.9
			S-977.1-637-1006.9-637z M-876.9-521.2c-34.2,0-61.9-27.8-61.9-61.9S-911-645-876.9-645s61.9,27.8,61.9,61.9
			S-842.7-521.2-876.9-521.2z M-876.9-637c-29.7,0-53.9,24.2-53.9,53.9s24.2,53.9,53.9,53.9s53.9-24.2,53.9-53.9
			S-847.1-637-876.9-637z M-616.9-521.2c-34.2,0-61.9-27.8-61.9-61.9S-651-645-616.9-645s61.9,27.8,61.9,61.9
			S-582.7-521.2-616.9-521.2z M-616.9-637c-29.7,0-53.9,24.2-53.9,53.9s24.2,53.9,53.9,53.9s53.9-24.2,53.9-53.9
			S-587.1-637-616.9-637z M-356.9-521.2c-34.2,0-61.9-27.8-61.9-61.9S-391-645-356.9-645s61.9,27.8,61.9,61.9
			S-322.7-521.2-356.9-521.2z M-356.9-637c-29.7,0-53.9,24.2-53.9,53.9s24.2,53.9,53.9,53.9s53.9-24.2,53.9-53.9
			S-327.1-637-356.9-637z M-486.9-391.2c-34.2,0-61.9-27.8-61.9-61.9S-521-515-486.9-515s61.9,27.8,61.9,61.9
			S-452.7-391.2-486.9-391.2z M-486.9-507c-29.7,0-53.9,24.2-53.9,53.9s24.2,53.9,53.9,53.9s53.9-24.2,53.9-53.9
			S-457.1-507-486.9-507z M-356.9-391.2c-34.2,0-61.9-27.8-61.9-61.9S-391-515-356.9-515s61.9,27.8,61.9,61.9
			S-322.7-391.2-356.9-391.2z M-356.9-507c-29.7,0-53.9,24.2-53.9,53.9s24.2,53.9,53.9,53.9s53.9-24.2,53.9-53.9
			S-327.1-507-356.9-507z M-616.9-261.2c-34.2,0-61.9-27.8-61.9-61.9S-651-385-616.9-385s61.9,27.8,61.9,61.9
			S-582.7-261.2-616.9-261.2z M-616.9-377c-29.7,0-53.9,24.2-53.9,53.9s24.2,53.9,53.9,53.9s53.9-24.2,53.9-53.9
			S-587.1-377-616.9-377z M-356.9-261.2c-34.2,0-61.9-27.8-61.9-61.9S-391-385-356.9-385s61.9,27.8,61.9,61.9
			S-322.7-261.2-356.9-261.2z M-356.9-377c-29.7,0-53.9,24.2-53.9,53.9s24.2,53.9,53.9,53.9s53.9-24.2,53.9-53.9
			S-327.1-377-356.9-377z"/>
	</defs>
	<clipPath id="SVGID_2_">
		<use xlink:href="#SVGID_1_"  overflow="visible"/>
	</clipPath>
	<linearGradient id="SVGID_3_" gradientUnits="userSpaceOnUse" x1="-958.7771" y1="-1127.2627" x2="-407.9526" y2="-173.2067">
		<stop  offset="0" style="stop-color:#FF7832"/>
		<stop  offset="0.3072" style="stop-color:#F7FF01"/>
		<stop  offset="0.5451" style="stop-color:#12FF30"/>
		<stop  offset="0.8062" style="stop-color:#40CBFF"/>
		<stop  offset="1" style="stop-color:#4C47FF"/>
	</linearGradient>
	<path clip-path="url(#SVGID_2_)" fill="url(#SVGID_3_)" d="M-304.2-239.5h-758.3c-22.7,0-41.2-18.6-41.2-41.2v-739.1
		c0-22.7,18.6-41.2,41.2-41.2h758.3c22.7,0,41.2,18.6,41.2,41.2v739.1C-262.9-258-281.5-239.5-304.2-239.5z"/>
</g>
<path fill="#FFFFFF" d="M2163.4-226h-743.5c-22.7,0-41.2-18.6-41.2-41.2v-741.8c0-22.7,18.6-41.2,41.2-41.2h743.5
	c22.7,0,41.2,18.6,41.2,41.2v741.8C2204.6-244.6,2186-226,2163.4-226z"/>
<path fill="#E2E2E2" d="M1464.9-898.2c-34.2,0-61.9-27.8-61.9-61.9s27.8-61.9,61.9-61.9s61.9,27.8,61.9,61.9
	S1499-898.2,1464.9-898.2z M1464.9-1014c-29.7,0-53.9,24.2-53.9,53.9s24.2,53.9,53.9,53.9s53.9-24.2,53.9-53.9
	S1494.6-1014,1464.9-1014z M1594.9-898.2c-34.2,0-61.9-27.8-61.9-61.9s27.8-61.9,61.9-61.9s61.9,27.8,61.9,61.9
	S1629-898.2,1594.9-898.2z M1594.9-1014c-29.7,0-53.9,24.2-53.9,53.9s24.2,53.9,53.9,53.9s53.9-24.2,53.9-53.9
	S1624.6-1014,1594.9-1014z M1724.9-898.2c-34.2,0-61.9-27.8-61.9-61.9s27.8-61.9,61.9-61.9s61.9,27.8,61.9,61.9
	S1759-898.2,1724.9-898.2z M1724.9-1014c-29.7,0-53.9,24.2-53.9,53.9s24.2,53.9,53.9,53.9s53.9-24.2,53.9-53.9
	S1754.6-1014,1724.9-1014z M1854.9-898.2c-34.2,0-61.9-27.8-61.9-61.9s27.8-61.9,61.9-61.9s61.9,27.8,61.9,61.9
	S1889-898.2,1854.9-898.2z M1854.9-1014c-29.7,0-53.9,24.2-53.9,53.9s24.2,53.9,53.9,53.9s53.9-24.2,53.9-53.9
	S1884.6-1014,1854.9-1014z M1984.9-898.2c-34.2,0-61.9-27.8-61.9-61.9s27.8-61.9,61.9-61.9s61.9,27.8,61.9,61.9
	S2019-898.2,1984.9-898.2z M1984.9-1014c-29.7,0-53.9,24.2-53.9,53.9s24.2,53.9,53.9,53.9s53.9-24.2,53.9-53.9
	S2014.6-1014,1984.9-1014z M2114.9-898.2c-34.2,0-61.9-27.8-61.9-61.9s27.8-61.9,61.9-61.9s61.9,27.8,61.9,61.9
	S2149-898.2,2114.9-898.2z M2114.9-1014c-29.7,0-53.9,24.2-53.9,53.9s24.2,53.9,53.9,53.9s53.9-24.2,53.9-53.9
	S2144.6-1014,2114.9-1014z M1464.9-768.2c-34.2,0-61.9-27.8-61.9-61.9s27.8-61.9,61.9-61.9s61.9,27.8,61.9,61.9
	S1499-768.2,1464.9-768.2z M1464.9-884c-29.7,0-53.9,24.2-53.9,53.9s24.2,53.9,53.9,53.9s53.9-24.2,53.9-53.9S1494.6-884,1464.9-884
	z M1594.9-768.2c-34.2,0-61.9-27.8-61.9-61.9s27.8-61.9,61.9-61.9s61.9,27.8,61.9,61.9S1629-768.2,1594.9-768.2z M1594.9-884
	c-29.7,0-53.9,24.2-53.9,53.9s24.2,53.9,53.9,53.9s53.9-24.2,53.9-53.9S1624.6-884,1594.9-884z M1724.9-768.2
	c-34.2,0-61.9-27.8-61.9-61.9s27.8-61.9,61.9-61.9s61.9,27.8,61.9,61.9S1759-768.2,1724.9-768.2z M1724.9-884
	c-29.7,0-53.9,24.2-53.9,53.9s24.2,53.9,53.9,53.9s53.9-24.2,53.9-53.9S1754.6-884,1724.9-884z M1854.9-768.2
	c-34.2,0-61.9-27.8-61.9-61.9s27.8-61.9,61.9-61.9s61.9,27.8,61.9,61.9S1889-768.2,1854.9-768.2z M1854.9-884
	c-29.7,0-53.9,24.2-53.9,53.9s24.2,53.9,53.9,53.9s53.9-24.2,53.9-53.9S1884.6-884,1854.9-884z M1984.9-768.2
	c-34.2,0-61.9-27.8-61.9-61.9s27.8-61.9,61.9-61.9s61.9,27.8,61.9,61.9S2019-768.2,1984.9-768.2z M1984.9-884
	c-29.7,0-53.9,24.2-53.9,53.9s24.2,53.9,53.9,53.9s53.9-24.2,53.9-53.9S2014.6-884,1984.9-884z M2114.9-768.2
	c-34.2,0-61.9-27.8-61.9-61.9s27.8-61.9,61.9-61.9s61.9,27.8,61.9,61.9S2149-768.2,2114.9-768.2z M2114.9-884
	c-29.7,0-53.9,24.2-53.9,53.9s24.2,53.9,53.9,53.9s53.9-24.2,53.9-53.9S2144.6-884,2114.9-884z M1464.9-638.2
	c-34.2,0-61.9-27.8-61.9-61.9s27.8-61.9,61.9-61.9s61.9,27.8,61.9,61.9S1499-638.2,1464.9-638.2z M1464.9-754
	c-29.7,0-53.9,24.2-53.9,53.9s24.2,53.9,53.9,53.9s53.9-24.2,53.9-53.9S1494.6-754,1464.9-754z M1594.9-638.2
	c-34.2,0-61.9-27.8-61.9-61.9s27.8-61.9,61.9-61.9s61.9,27.8,61.9,61.9S1629-638.2,1594.9-638.2z M1594.9-754
	c-29.7,0-53.9,24.2-53.9,53.9s24.2,53.9,53.9,53.9s53.9-24.2,53.9-53.9S1624.6-754,1594.9-754z M1724.9-638.2
	c-34.2,0-61.9-27.8-61.9-61.9s27.8-61.9,61.9-61.9s61.9,27.8,61.9,61.9S1759-638.2,1724.9-638.2z M1724.9-754
	c-29.7,0-53.9,24.2-53.9,53.9s24.2,53.9,53.9,53.9s53.9-24.2,53.9-53.9S1754.6-754,1724.9-754z M1854.9-638.2
	c-34.2,0-61.9-27.8-61.9-61.9s27.8-61.9,61.9-61.9s61.9,27.8,61.9,61.9S1889-638.2,1854.9-638.2z M1854.9-754
	c-29.7,0-53.9,24.2-53.9,53.9s24.2,53.9,53.9,53.9s53.9-24.2,53.9-53.9S1884.6-754,1854.9-754z M1984.9-638.2
	c-34.2,0-61.9-27.8-61.9-61.9s27.8-61.9,61.9-61.9s61.9,27.8,61.9,61.9S2019-638.2,1984.9-638.2z M1984.9-754
	c-29.7,0-53.9,24.2-53.9,53.9s24.2,53.9,53.9,53.9s53.9-24.2,53.9-53.9S2014.6-754,1984.9-754z M2114.9-638.2
	c-34.2,0-61.9-27.8-61.9-61.9s27.8-61.9,61.9-61.9s61.9,27.8,61.9,61.9S2149-638.2,2114.9-638.2z M2114.9-754
	c-29.7,0-53.9,24.2-53.9,53.9s24.2,53.9,53.9,53.9s53.9-24.2,53.9-53.9S2144.6-754,2114.9-754z M1464.9-508.2
	c-34.2,0-61.9-27.8-61.9-61.9s27.8-61.9,61.9-61.9s61.9,27.8,61.9,61.9S1499-508.2,1464.9-508.2z M1464.9-624
	c-29.7,0-53.9,24.2-53.9,53.9s24.2,53.9,53.9,53.9s53.9-24.2,53.9-53.9S1494.6-624,1464.9-624z M1594.9-508.2
	c-34.2,0-61.9-27.8-61.9-61.9s27.8-61.9,61.9-61.9s61.9,27.8,61.9,61.9S1629-508.2,1594.9-508.2z M1594.9-624
	c-29.7,0-53.9,24.2-53.9,53.9s24.2,53.9,53.9,53.9s53.9-24.2,53.9-53.9S1624.6-624,1594.9-624z M1724.9-508.2
	c-34.2,0-61.9-27.8-61.9-61.9s27.8-61.9,61.9-61.9s61.9,27.8,61.9,61.9S1759-508.2,1724.9-508.2z M1724.9-624
	c-29.7,0-53.9,24.2-53.9,53.9s24.2,53.9,53.9,53.9s53.9-24.2,53.9-53.9S1754.6-624,1724.9-624z M1854.9-508.2
	c-34.2,0-61.9-27.8-61.9-61.9s27.8-61.9,61.9-61.9s61.9,27.8,61.9,61.9S1889-508.2,1854.9-508.2z M1854.9-624
	c-29.7,0-53.9,24.2-53.9,53.9s24.2,53.9,53.9,53.9s53.9-24.2,53.9-53.9S1884.6-624,1854.9-624z M1984.9-508.2
	c-34.2,0-61.9-27.8-61.9-61.9s27.8-61.9,61.9-61.9s61.9,27.8,61.9,61.9S2019-508.2,1984.9-508.2z M1984.9-624
	c-29.7,0-53.9,24.2-53.9,53.9s24.2,53.9,53.9,53.9s53.9-24.2,53.9-53.9S2014.6-624,1984.9-624z M2114.9-508.2
	c-34.2,0-61.9-27.8-61.9-61.9s27.8-61.9,61.9-61.9s61.9,27.8,61.9,61.9S2149-508.2,2114.9-508.2z M2114.9-624
	c-29.7,0-53.9,24.2-53.9,53.9s24.2,53.9,53.9,53.9s53.9-24.2,53.9-53.9S2144.6-624,2114.9-624z M1464.9-378.2
	c-34.2,0-61.9-27.8-61.9-61.9s27.8-61.9,61.9-61.9s61.9,27.8,61.9,61.9S1499-378.2,1464.9-378.2z M1464.9-494
	c-29.7,0-53.9,24.2-53.9,53.9s24.2,53.9,53.9,53.9s53.9-24.2,53.9-53.9S1494.6-494,1464.9-494z M1594.9-378.2
	c-34.2,0-61.9-27.8-61.9-61.9s27.8-61.9,61.9-61.9s61.9,27.8,61.9,61.9S1629-378.2,1594.9-378.2z M1594.9-494
	c-29.7,0-53.9,24.2-53.9,53.9s24.2,53.9,53.9,53.9s53.9-24.2,53.9-53.9S1624.6-494,1594.9-494z M1724.9-378.2
	c-34.2,0-61.9-27.8-61.9-61.9s27.8-61.9,61.9-61.9s61.9,27.8,61.9,61.9S1759-378.2,1724.9-378.2z M1724.9-494
	c-29.7,0-53.9,24.2-53.9,53.9s24.2,53.9,53.9,53.9s53.9-24.2,53.9-53.9S1754.6-494,1724.9-494z M1854.9-378.2
	c-34.2,0-61.9-27.8-61.9-61.9s27.8-61.9,61.9-61.9s61.9,27.8,61.9,61.9S1889-378.2,1854.9-378.2z M1854.9-494
	c-29.7,0-53.9,24.2-53.9,53.9s24.2,53.9,53.9,53.9s53.9-24.2,53.9-53.9S1884.6-494,1854.9-494z M1984.9-378.2
	c-34.2,0-61.9-27.8-61.9-61.9s27.8-61.9,61.9-61.9s61.9,27.8,61.9,61.9S2019-378.2,1984.9-378.2z M1984.9-494
	c-29.7,0-53.9,24.2-53.9,53.9s24.2,53.9,53.9,53.9s53.9-24.2,53.9-53.9S2014.6-494,1984.9-494z M2114.9-378.2
	c-34.2,0-61.9-27.8-61.9-61.9s27.8-61.9,61.9-61.9s61.9,27.8,61.9,61.9S2149-378.2,2114.9-378.2z M2114.9-494
	c-29.7,0-53.9,24.2-53.9,53.9s24.2,53.9,53.9,53.9s53.9-24.2,53.9-53.9S2144.6-494,2114.9-494z M1464.9-248.2
	c-34.2,0-61.9-27.8-61.9-61.9s27.8-61.9,61.9-61.9s61.9,27.8,61.9,61.9S1499-248.2,1464.9-248.2z M1464.9-364
	c-29.7,0-53.9,24.2-53.9,53.9s24.2,53.9,53.9,53.9s53.9-24.2,53.9-53.9S1494.6-364,1464.9-364z M1594.9-248.2
	c-34.2,0-61.9-27.8-61.9-61.9s27.8-61.9,61.9-61.9s61.9,27.8,61.9,61.9S1629-248.2,1594.9-248.2z M1594.9-364
	c-29.7,0-53.9,24.2-53.9,53.9s24.2,53.9,53.9,53.9s53.9-24.2,53.9-53.9S1624.6-364,1594.9-364z M1724.9-248.2
	c-34.2,0-61.9-27.8-61.9-61.9s27.8-61.9,61.9-61.9s61.9,27.8,61.9,61.9S1759-248.2,1724.9-248.2z M1724.9-364
	c-29.7,0-53.9,24.2-53.9,53.9s24.2,53.9,53.9,53.9s53.9-24.2,53.9-53.9S1754.6-364,1724.9-364z M1854.9-248.2
	c-34.2,0-61.9-27.8-61.9-61.9s27.8-61.9,61.9-61.9s61.9,27.8,61.9,61.9S1889-248.2,1854.9-248.2z M1854.9-364
	c-29.7,0-53.9,24.2-53.9,53.9s24.2,53.9,53.9,53.9s53.9-24.2,53.9-53.9S1884.6-364,1854.9-364z M1984.9-248.2
	c-34.2,0-61.9-27.8-61.9-61.9s27.8-61.9,61.9-61.9s61.9,27.8,61.9,61.9S2019-248.2,1984.9-248.2z M1984.9-364
	c-29.7,0-53.9,24.2-53.9,53.9s24.2,53.9,53.9,53.9s53.9-24.2,53.9-53.9S2014.6-364,1984.9-364z M2114.9-248.2
	c-34.2,0-61.9-27.8-61.9-61.9s27.8-61.9,61.9-61.9s61.9,27.8,61.9,61.9S2149-248.2,2114.9-248.2z M2114.9-364
	c-29.7,0-53.9,24.2-53.9,53.9s24.2,53.9,53.9,53.9s53.9-24.2,53.9-53.9S2144.6-364,2114.9-364z"/>
<path fill="#F573FF" d="M1465.9-897.2c-34.2,0-61.9-27.8-61.9-61.9s27.8-61.9,61.9-61.9s61.9,27.8,61.9,61.9
	S1500-897.2,1465.9-897.2z M1465.9-1013c-29.7,0-53.9,24.2-53.9,53.9s24.2,53.9,53.9,53.9s53.9-24.2,53.9-53.9
	S1495.6-1013,1465.9-1013z M1595.9-897.2c-34.2,0-61.9-27.8-61.9-61.9s27.8-61.9,61.9-61.9s61.9,27.8,61.9,61.9
	S1630-897.2,1595.9-897.2z M1595.9-1013c-29.7,0-53.9,24.2-53.9,53.9s24.2,53.9,53.9,53.9s53.9-24.2,53.9-53.9
	S1625.6-1013,1595.9-1013z M1465.9-767.2c-34.2,0-61.9-27.8-61.9-61.9s27.8-61.9,61.9-61.9s61.9,27.8,61.9,61.9
	S1500-767.2,1465.9-767.2z M1465.9-883c-29.7,0-53.9,24.2-53.9,53.9s24.2,53.9,53.9,53.9s53.9-24.2,53.9-53.9S1495.6-883,1465.9-883
	z M1465.9-637.2c-34.2,0-61.9-27.8-61.9-61.9s27.8-61.9,61.9-61.9s61.9,27.8,61.9,61.9S1500-637.2,1465.9-637.2z M1465.9-753
	c-29.7,0-53.9,24.2-53.9,53.9s24.2,53.9,53.9,53.9s53.9-24.2,53.9-53.9S1495.6-753,1465.9-753z M1595.9-637.2
	c-34.2,0-61.9-27.8-61.9-61.9s27.8-61.9,61.9-61.9s61.9,27.8,61.9,61.9S1630-637.2,1595.9-637.2z M1595.9-753
	c-29.7,0-53.9,24.2-53.9,53.9s24.2,53.9,53.9,53.9s53.9-24.2,53.9-53.9S1625.6-753,1595.9-753z"/>
<path fill="#B576FF" d="M1725.9-897.2c-34.2,0-61.9-27.8-61.9-61.9s27.8-61.9,61.9-61.9s61.9,27.8,61.9,61.9
	S1760-897.2,1725.9-897.2z M1725.9-1013c-29.7,0-53.9,24.2-53.9,53.9s24.2,53.9,53.9,53.9s53.9-24.2,53.9-53.9
	S1755.6-1013,1725.9-1013z M1855.9-897.2c-34.2,0-61.9-27.8-61.9-61.9s27.8-61.9,61.9-61.9s61.9,27.8,61.9,61.9
	S1890-897.2,1855.9-897.2z M1855.9-1013c-29.7,0-53.9,24.2-53.9,53.9s24.2,53.9,53.9,53.9s53.9-24.2,53.9-53.9
	S1885.6-1013,1855.9-1013z M1725.9-637.2c-34.2,0-61.9-27.8-61.9-61.9s27.8-61.9,61.9-61.9s61.9,27.8,61.9,61.9
	S1760-637.2,1725.9-637.2z M1725.9-753c-29.7,0-53.9,24.2-53.9,53.9s24.2,53.9,53.9,53.9s53.9-24.2,53.9-53.9S1755.6-753,1725.9-753
	z M1855.9-637.2c-34.2,0-61.9-27.8-61.9-61.9s27.8-61.9,61.9-61.9s61.9,27.8,61.9,61.9S1890-637.2,1855.9-637.2z M1855.9-753
	c-29.7,0-53.9,24.2-53.9,53.9s24.2,53.9,53.9,53.9s53.9-24.2,53.9-53.9S1885.6-753,1855.9-753z"/>
<path fill="#F573FF" d="M1985.9-897.2c-34.2,0-61.9-27.8-61.9-61.9s27.8-61.9,61.9-61.9s61.9,27.8,61.9,61.9
	S2020-897.2,1985.9-897.2z M1985.9-1013c-29.7,0-53.9,24.2-53.9,53.9s24.2,53.9,53.9,53.9s53.9-24.2,53.9-53.9
	S2015.6-1013,1985.9-1013z M2115.9-897.2c-34.2,0-61.9-27.8-61.9-61.9s27.8-61.9,61.9-61.9s61.9,27.8,61.9,61.9
	S2150-897.2,2115.9-897.2z M2115.9-1013c-29.7,0-53.9,24.2-53.9,53.9s24.2,53.9,53.9,53.9s53.9-24.2,53.9-53.9
	S2145.6-1013,2115.9-1013z M1985.9-637.2c-34.2,0-61.9-27.8-61.9-61.9s27.8-61.9,61.9-61.9s61.9,27.8,61.9,61.9
	S2020-637.2,1985.9-637.2z M1985.9-753c-29.7,0-53.9,24.2-53.9,53.9s24.2,53.9,53.9,53.9s53.9-24.2,53.9-53.9S2015.6-753,1985.9-753
	z M2115.9-637.2c-34.2,0-61.9-27.8-61.9-61.9s27.8-61.9,61.9-61.9s61.9,27.8,61.9,61.9S2150-637.2,2115.9-637.2z M2115.9-753
	c-29.7,0-53.9,24.2-53.9,53.9s24.2,53.9,53.9,53.9s53.9-24.2,53.9-53.9S2145.6-753,2115.9-753z"/>
<path fill="#D776FF" d="M1465.9-247.2c-34.2,0-61.9-27.8-61.9-61.9s27.8-61.9,61.9-61.9s61.9,27.8,61.9,61.9
	S1500-247.2,1465.9-247.2z M1465.9-363c-29.7,0-53.9,24.2-53.9,53.9s24.2,53.9,53.9,53.9s53.9-24.2,53.9-53.9S1495.6-363,1465.9-363
	z M1595.9-247.2c-34.2,0-61.9-27.8-61.9-61.9s27.8-61.9,61.9-61.9s61.9,27.8,61.9,61.9S1630-247.2,1595.9-247.2z M1595.9-363
	c-29.7,0-53.9,24.2-53.9,53.9s24.2,53.9,53.9,53.9s53.9-24.2,53.9-53.9S1625.6-363,1595.9-363z"/>
<path fill="#FF7697" d="M2115.9-507.2c-34.2,0-61.9-27.8-61.9-61.9s27.8-61.9,61.9-61.9s61.9,27.8,61.9,61.9
	S2150-507.2,2115.9-507.2z M2115.9-623c-29.7,0-53.9,24.2-53.9,53.9s24.2,53.9,53.9,53.9s53.9-24.2,53.9-53.9S2145.6-623,2115.9-623
	z M2115.9-377.2c-34.2,0-61.9-27.8-61.9-61.9s27.8-61.9,61.9-61.9s61.9,27.8,61.9,61.9S2150-377.2,2115.9-377.2z M2115.9-493
	c-29.7,0-53.9,24.2-53.9,53.9s24.2,53.9,53.9,53.9s53.9-24.2,53.9-53.9S2145.6-493,2115.9-493z M1725.9-247.2
	c-34.2,0-61.9-27.8-61.9-61.9s27.8-61.9,61.9-61.9s61.9,27.8,61.9,61.9S1760-247.2,1725.9-247.2z M1725.9-363
	c-29.7,0-53.9,24.2-53.9,53.9s24.2,53.9,53.9,53.9s53.9-24.2,53.9-53.9S1755.6-363,1725.9-363z M1855.9-247.2
	c-34.2,0-61.9-27.8-61.9-61.9s27.8-61.9,61.9-61.9s61.9,27.8,61.9,61.9S1890-247.2,1855.9-247.2z M1855.9-363
	c-29.7,0-53.9,24.2-53.9,53.9s24.2,53.9,53.9,53.9s53.9-24.2,53.9-53.9S1885.6-363,1855.9-363z M1985.9-247.2
	c-34.2,0-61.9-27.8-61.9-61.9s27.8-61.9,61.9-61.9s61.9,27.8,61.9,61.9S2020-247.2,1985.9-247.2z M1985.9-363
	c-29.7,0-53.9,24.2-53.9,53.9s24.2,53.9,53.9,53.9s53.9-24.2,53.9-53.9S2015.6-363,1985.9-363z M2115.9-247.2
	c-34.2,0-61.9-27.8-61.9-61.9s27.8-61.9,61.9-61.9s61.9,27.8,61.9,61.9S2150-247.2,2115.9-247.2z M2115.9-363
	c-29.7,0-53.9,24.2-53.9,53.9s24.2,53.9,53.9,53.9s53.9-24.2,53.9-53.9S2145.6-363,2115.9-363z"/>
<g>
	<path fill="#FFFFFF" d="M3135.4-657.1h-743.5c-22.7,0-41.2-18.6-41.2-41.2v-741.8c0-22.7,18.6-41.2,41.2-41.2h743.5
		c22.7,0,41.2,18.6,41.2,41.2v741.8C3176.6-675.7,3158-657.1,3135.4-657.1z"/>
	<path fill="#E2E2E2" d="M2436.9-1329.3c-34.2,0-61.9-27.8-61.9-61.9s27.8-61.9,61.9-61.9s61.9,27.8,61.9,61.9
		S2471-1329.3,2436.9-1329.3z M2436.9-1445.2c-29.7,0-53.9,24.2-53.9,53.9s24.2,53.9,53.9,53.9s53.9-24.2,53.9-53.9
		S2466.6-1445.2,2436.9-1445.2z M2566.9-1329.3c-34.2,0-61.9-27.8-61.9-61.9s27.8-61.9,61.9-61.9s61.9,27.8,61.9,61.9
		S2601-1329.3,2566.9-1329.3z M2566.9-1445.2c-29.7,0-53.9,24.2-53.9,53.9s24.2,53.9,53.9,53.9s53.9-24.2,53.9-53.9
		S2596.6-1445.2,2566.9-1445.2z M2696.9-1329.3c-34.2,0-61.9-27.8-61.9-61.9s27.8-61.9,61.9-61.9s61.9,27.8,61.9,61.9
		S2731-1329.3,2696.9-1329.3z M2696.9-1445.2c-29.7,0-53.9,24.2-53.9,53.9s24.2,53.9,53.9,53.9s53.9-24.2,53.9-53.9
		S2726.6-1445.2,2696.9-1445.2z M2826.9-1329.3c-34.2,0-61.9-27.8-61.9-61.9s27.8-61.9,61.9-61.9s61.9,27.8,61.9,61.9
		S2861-1329.3,2826.9-1329.3z M2826.9-1445.2c-29.7,0-53.9,24.2-53.9,53.9s24.2,53.9,53.9,53.9s53.9-24.2,53.9-53.9
		S2856.6-1445.2,2826.9-1445.2z M2956.9-1329.3c-34.2,0-61.9-27.8-61.9-61.9s27.8-61.9,61.9-61.9s61.9,27.8,61.9,61.9
		S2991-1329.3,2956.9-1329.3z M2956.9-1445.2c-29.7,0-53.9,24.2-53.9,53.9s24.2,53.9,53.9,53.9s53.9-24.2,53.9-53.9
		S2986.6-1445.2,2956.9-1445.2z M3086.9-1329.3c-34.2,0-61.9-27.8-61.9-61.9s27.8-61.9,61.9-61.9s61.9,27.8,61.9,61.9
		S3121-1329.3,3086.9-1329.3z M3086.9-1445.2c-29.7,0-53.9,24.2-53.9,53.9s24.2,53.9,53.9,53.9s53.9-24.2,53.9-53.9
		S3116.6-1445.2,3086.9-1445.2z M2436.9-1199.3c-34.2,0-61.9-27.8-61.9-61.9s27.8-61.9,61.9-61.9s61.9,27.8,61.9,61.9
		S2471-1199.3,2436.9-1199.3z M2436.9-1315.2c-29.7,0-53.9,24.2-53.9,53.9s24.2,53.9,53.9,53.9s53.9-24.2,53.9-53.9
		S2466.6-1315.2,2436.9-1315.2z M2566.9-1199.3c-34.2,0-61.9-27.8-61.9-61.9s27.8-61.9,61.9-61.9s61.9,27.8,61.9,61.9
		S2601-1199.3,2566.9-1199.3z M2566.9-1315.2c-29.7,0-53.9,24.2-53.9,53.9s24.2,53.9,53.9,53.9s53.9-24.2,53.9-53.9
		S2596.6-1315.2,2566.9-1315.2z M2696.9-1199.3c-34.2,0-61.9-27.8-61.9-61.9s27.8-61.9,61.9-61.9s61.9,27.8,61.9,61.9
		S2731-1199.3,2696.9-1199.3z M2696.9-1315.2c-29.7,0-53.9,24.2-53.9,53.9s24.2,53.9,53.9,53.9s53.9-24.2,53.9-53.9
		S2726.6-1315.2,2696.9-1315.2z M2826.9-1199.3c-34.2,0-61.9-27.8-61.9-61.9s27.8-61.9,61.9-61.9s61.9,27.8,61.9,61.9
		S2861-1199.3,2826.9-1199.3z M2826.9-1315.2c-29.7,0-53.9,24.2-53.9,53.9s24.2,53.9,53.9,53.9s53.9-24.2,53.9-53.9
		S2856.6-1315.2,2826.9-1315.2z M2956.9-1199.3c-34.2,0-61.9-27.8-61.9-61.9s27.8-61.9,61.9-61.9s61.9,27.8,61.9,61.9
		S2991-1199.3,2956.9-1199.3z M2956.9-1315.2c-29.7,0-53.9,24.2-53.9,53.9s24.2,53.9,53.9,53.9s53.9-24.2,53.9-53.9
		S2986.6-1315.2,2956.9-1315.2z M3086.9-1199.3c-34.2,0-61.9-27.8-61.9-61.9s27.8-61.9,61.9-61.9s61.9,27.8,61.9,61.9
		S3121-1199.3,3086.9-1199.3z M3086.9-1315.2c-29.7,0-53.9,24.2-53.9,53.9s24.2,53.9,53.9,53.9s53.9-24.2,53.9-53.9
		S3116.6-1315.2,3086.9-1315.2z M2436.9-1069.3c-34.2,0-61.9-27.8-61.9-61.9s27.8-61.9,61.9-61.9s61.9,27.8,61.9,61.9
		S2471-1069.3,2436.9-1069.3z M2436.9-1185.2c-29.7,0-53.9,24.2-53.9,53.9s24.2,53.9,53.9,53.9s53.9-24.2,53.9-53.9
		S2466.6-1185.2,2436.9-1185.2z M2566.9-1069.3c-34.2,0-61.9-27.8-61.9-61.9s27.8-61.9,61.9-61.9s61.9,27.8,61.9,61.9
		S2601-1069.3,2566.9-1069.3z M2566.9-1185.2c-29.7,0-53.9,24.2-53.9,53.9s24.2,53.9,53.9,53.9s53.9-24.2,53.9-53.9
		S2596.6-1185.2,2566.9-1185.2z M2696.9-1069.3c-34.2,0-61.9-27.8-61.9-61.9s27.8-61.9,61.9-61.9s61.9,27.8,61.9,61.9
		S2731-1069.3,2696.9-1069.3z M2696.9-1185.2c-29.7,0-53.9,24.2-53.9,53.9s24.2,53.9,53.9,53.9s53.9-24.2,53.9-53.9
		S2726.6-1185.2,2696.9-1185.2z M2826.9-1069.3c-34.2,0-61.9-27.8-61.9-61.9s27.8-61.9,61.9-61.9s61.9,27.8,61.9,61.9
		S2861-1069.3,2826.9-1069.3z M2826.9-1185.2c-29.7,0-53.9,24.2-53.9,53.9s24.2,53.9,53.9,53.9s53.9-24.2,53.9-53.9
		S2856.6-1185.2,2826.9-1185.2z M2956.9-1069.3c-34.2,0-61.9-27.8-61.9-61.9s27.8-61.9,61.9-61.9s61.9,27.8,61.9,61.9
		S2991-1069.3,2956.9-1069.3z M2956.9-1185.2c-29.7,0-53.9,24.2-53.9,53.9s24.2,53.9,53.9,53.9s53.9-24.2,53.9-53.9
		S2986.6-1185.2,2956.9-1185.2z M3086.9-1069.3c-34.2,0-61.9-27.8-61.9-61.9s27.8-61.9,61.9-61.9s61.9,27.8,61.9,61.9
		S3121-1069.3,3086.9-1069.3z M3086.9-1185.2c-29.7,0-53.9,24.2-53.9,53.9s24.2,53.9,53.9,53.9s53.9-24.2,53.9-53.9
		S3116.6-1185.2,3086.9-1185.2z M2436.9-939.3c-34.2,0-61.9-27.8-61.9-61.9c0-34.2,27.8-61.9,61.9-61.9s61.9,27.8,61.9,61.9
		C2498.8-967.1,2471-939.3,2436.9-939.3z M2436.9-1055.2c-29.7,0-53.9,24.2-53.9,53.9c0,29.7,24.2,53.9,53.9,53.9
		s53.9-24.2,53.9-53.9C2490.8-1031,2466.6-1055.2,2436.9-1055.2z M2566.9-939.3c-34.2,0-61.9-27.8-61.9-61.9
		c0-34.2,27.8-61.9,61.9-61.9s61.9,27.8,61.9,61.9C2628.8-967.1,2601-939.3,2566.9-939.3z M2566.9-1055.2
		c-29.7,0-53.9,24.2-53.9,53.9c0,29.7,24.2,53.9,53.9,53.9s53.9-24.2,53.9-53.9C2620.8-1031,2596.6-1055.2,2566.9-1055.2z
		 M2696.9-939.3c-34.2,0-61.9-27.8-61.9-61.9c0-34.2,27.8-61.9,61.9-61.9s61.9,27.8,61.9,61.9C2758.8-967.1,2731-939.3,2696.9-939.3
		z M2696.9-1055.2c-29.7,0-53.9,24.2-53.9,53.9c0,29.7,24.2,53.9,53.9,53.9s53.9-24.2,53.9-53.9
		C2750.8-1031,2726.6-1055.2,2696.9-1055.2z M2826.9-939.3c-34.2,0-61.9-27.8-61.9-61.9c0-34.2,27.8-61.9,61.9-61.9
		s61.9,27.8,61.9,61.9C2888.8-967.1,2861-939.3,2826.9-939.3z M2826.9-1055.2c-29.7,0-53.9,24.2-53.9,53.9
		c0,29.7,24.2,53.9,53.9,53.9s53.9-24.2,53.9-53.9C2880.8-1031,2856.6-1055.2,2826.9-1055.2z M2956.9-939.3
		c-34.2,0-61.9-27.8-61.9-61.9c0-34.2,27.8-61.9,61.9-61.9s61.9,27.8,61.9,61.9C3018.8-967.1,2991-939.3,2956.9-939.3z
		 M2956.9-1055.2c-29.7,0-53.9,24.2-53.9,53.9c0,29.7,24.2,53.9,53.9,53.9s53.9-24.2,53.9-53.9
		C3010.8-1031,2986.6-1055.2,2956.9-1055.2z M3086.9-939.3c-34.2,0-61.9-27.8-61.9-61.9c0-34.2,27.8-61.9,61.9-61.9
		s61.9,27.8,61.9,61.9C3148.8-967.1,3121-939.3,3086.9-939.3z M3086.9-1055.2c-29.7,0-53.9,24.2-53.9,53.9
		c0,29.7,24.2,53.9,53.9,53.9s53.9-24.2,53.9-53.9C3140.8-1031,3116.6-1055.2,3086.9-1055.2z M2436.9-809.3
		c-34.2,0-61.9-27.8-61.9-61.9s27.8-61.9,61.9-61.9s61.9,27.8,61.9,61.9S2471-809.3,2436.9-809.3z M2436.9-925.2
		c-29.7,0-53.9,24.2-53.9,53.9s24.2,53.9,53.9,53.9s53.9-24.2,53.9-53.9S2466.6-925.2,2436.9-925.2z M2566.9-809.3
		c-34.2,0-61.9-27.8-61.9-61.9s27.8-61.9,61.9-61.9s61.9,27.8,61.9,61.9S2601-809.3,2566.9-809.3z M2566.9-925.2
		c-29.7,0-53.9,24.2-53.9,53.9s24.2,53.9,53.9,53.9s53.9-24.2,53.9-53.9S2596.6-925.2,2566.9-925.2z M2696.9-809.3
		c-34.2,0-61.9-27.8-61.9-61.9s27.8-61.9,61.9-61.9s61.9,27.8,61.9,61.9S2731-809.3,2696.9-809.3z M2696.9-925.2
		c-29.7,0-53.9,24.2-53.9,53.9s24.2,53.9,53.9,53.9s53.9-24.2,53.9-53.9S2726.6-925.2,2696.9-925.2z M2826.9-809.3
		c-34.2,0-61.9-27.8-61.9-61.9s27.8-61.9,61.9-61.9s61.9,27.8,61.9,61.9S2861-809.3,2826.9-809.3z M2826.9-925.2
		c-29.7,0-53.9,24.2-53.9,53.9s24.2,53.9,53.9,53.9s53.9-24.2,53.9-53.9S2856.6-925.2,2826.9-925.2z M2956.9-809.3
		c-34.2,0-61.9-27.8-61.9-61.9s27.8-61.9,61.9-61.9s61.9,27.8,61.9,61.9S2991-809.3,2956.9-809.3z M2956.9-925.2
		c-29.7,0-53.9,24.2-53.9,53.9s24.2,53.9,53.9,53.9s53.9-24.2,53.9-53.9S2986.6-925.2,2956.9-925.2z M3086.9-809.3
		c-34.2,0-61.9-27.8-61.9-61.9s27.8-61.9,61.9-61.9s61.9,27.8,61.9,61.9S3121-809.3,3086.9-809.3z M3086.9-925.2
		c-29.7,0-53.9,24.2-53.9,53.9s24.2,53.9,53.9,53.9s53.9-24.2,53.9-53.9S3116.6-925.2,3086.9-925.2z M2436.9-679.3
		c-34.2,0-61.9-27.8-61.9-61.9s27.8-61.9,61.9-61.9s61.9,27.8,61.9,61.9S2471-679.3,2436.9-679.3z M2436.9-795.2
		c-29.7,0-53.9,24.2-53.9,53.9s24.2,53.9,53.9,53.9s53.9-24.2,53.9-53.9S2466.6-795.2,2436.9-795.2z M2566.9-679.3
		c-34.2,0-61.9-27.8-61.9-61.9s27.8-61.9,61.9-61.9s61.9,27.8,61.9,61.9S2601-679.3,2566.9-679.3z M2566.9-795.2
		c-29.7,0-53.9,24.2-53.9,53.9s24.2,53.9,53.9,53.9s53.9-24.2,53.9-53.9S2596.6-795.2,2566.9-795.2z M2696.9-679.3
		c-34.2,0-61.9-27.8-61.9-61.9s27.8-61.9,61.9-61.9s61.9,27.8,61.9,61.9S2731-679.3,2696.9-679.3z M2696.9-795.2
		c-29.7,0-53.9,24.2-53.9,53.9s24.2,53.9,53.9,53.9s53.9-24.2,53.9-53.9S2726.6-795.2,2696.9-795.2z M2826.9-679.3
		c-34.2,0-61.9-27.8-61.9-61.9s27.8-61.9,61.9-61.9s61.9,27.8,61.9,61.9S2861-679.3,2826.9-679.3z M2826.9-795.2
		c-29.7,0-53.9,24.2-53.9,53.9s24.2,53.9,53.9,53.9s53.9-24.2,53.9-53.9S2856.6-795.2,2826.9-795.2z M2956.9-679.3
		c-34.2,0-61.9-27.8-61.9-61.9s27.8-61.9,61.9-61.9s61.9,27.8,61.9,61.9S2991-679.3,2956.9-679.3z M2956.9-795.2
		c-29.7,0-53.9,24.2-53.9,53.9s24.2,53.9,53.9,53.9s53.9-24.2,53.9-53.9S2986.6-795.2,2956.9-795.2z M3086.9-679.3
		c-34.2,0-61.9-27.8-61.9-61.9s27.8-61.9,61.9-61.9s61.9,27.8,61.9,61.9S3121-679.3,3086.9-679.3z M3086.9-795.2
		c-29.7,0-53.9,24.2-53.9,53.9s24.2,53.9,53.9,53.9s53.9-24.2,53.9-53.9S3116.6-795.2,3086.9-795.2z"/>
	<path fill="#00FFB6" d="M3086.9-1328.3c-34.2,0-61.9-27.8-61.9-61.9s27.8-61.9,61.9-61.9s61.9,27.8,61.9,61.9
		S3121-1328.3,3086.9-1328.3z M3086.9-1444.2c-29.7,0-53.9,24.2-53.9,53.9s24.2,53.9,53.9,53.9s53.9-24.2,53.9-53.9
		S3116.6-1444.2,3086.9-1444.2z"/>
	<path fill="#00FFB6" d="M2436.9-1328.3c-34.2,0-61.9-27.8-61.9-61.9s27.8-61.9,61.9-61.9s61.9,27.8,61.9,61.9
		S2471-1328.3,2436.9-1328.3z M2436.9-1444.2c-29.7,0-53.9,24.2-53.9,53.9s24.2,53.9,53.9,53.9s53.9-24.2,53.9-53.9
		S2466.6-1444.2,2436.9-1444.2z M2696.9-1328.3c-34.2,0-61.9-27.8-61.9-61.9s27.8-61.9,61.9-61.9s61.9,27.8,61.9,61.9
		S2731-1328.3,2696.9-1328.3z M2696.9-1444.2c-29.7,0-53.9,24.2-53.9,53.9s24.2,53.9,53.9,53.9s53.9-24.2,53.9-53.9
		S2726.6-1444.2,2696.9-1444.2z M2436.9-1198.3c-34.2,0-61.9-27.8-61.9-61.9s27.8-61.9,61.9-61.9s61.9,27.8,61.9,61.9
		S2471-1198.3,2436.9-1198.3z M2436.9-1314.2c-29.7,0-53.9,24.2-53.9,53.9s24.2,53.9,53.9,53.9s53.9-24.2,53.9-53.9
		S2466.6-1314.2,2436.9-1314.2z M2696.9-1198.3c-34.2,0-61.9-27.8-61.9-61.9s27.8-61.9,61.9-61.9s61.9,27.8,61.9,61.9
		S2731-1198.3,2696.9-1198.3z M2696.9-1314.2c-29.7,0-53.9,24.2-53.9,53.9s24.2,53.9,53.9,53.9s53.9-24.2,53.9-53.9
		S2726.6-1314.2,2696.9-1314.2z"/>
	<path fill="#00FFEC" d="M3086.9-1198.3c-34.2,0-61.9-27.8-61.9-61.9s27.8-61.9,61.9-61.9s61.9,27.8,61.9,61.9
		S3121-1198.3,3086.9-1198.3z M3086.9-1314.2c-29.7,0-53.9,24.2-53.9,53.9s24.2,53.9,53.9,53.9s53.9-24.2,53.9-53.9
		S3116.6-1314.2,3086.9-1314.2z"/>
	<path fill="#00FFB6" d="M2436.9-1068.3c-34.2,0-61.9-27.8-61.9-61.9s27.8-61.9,61.9-61.9s61.9,27.8,61.9,61.9
		S2471-1068.3,2436.9-1068.3z M2436.9-1184.2c-29.7,0-53.9,24.2-53.9,53.9s24.2,53.9,53.9,53.9s53.9-24.2,53.9-53.9
		S2466.6-1184.2,2436.9-1184.2z"/>
	<path fill="#00FF97" d="M2696.9-1068.3c-34.2,0-61.9-27.8-61.9-61.9s27.8-61.9,61.9-61.9s61.9,27.8,61.9,61.9
		S2731-1068.3,2696.9-1068.3z M2696.9-1184.2c-29.7,0-53.9,24.2-53.9,53.9s24.2,53.9,53.9,53.9s53.9-24.2,53.9-53.9
		S2726.6-1184.2,2696.9-1184.2z"/>
	<path fill="#00FFB6" d="M3086.9-1068.3c-34.2,0-61.9-27.8-61.9-61.9s27.8-61.9,61.9-61.9s61.9,27.8,61.9,61.9
		S3121-1068.3,3086.9-1068.3z M3086.9-1184.2c-29.7,0-53.9,24.2-53.9,53.9s24.2,53.9,53.9,53.9s53.9-24.2,53.9-53.9
		S3116.6-1184.2,3086.9-1184.2z"/>
	<path fill="#00FFF2" d="M2436.9-938.3c-34.2,0-61.9-27.8-61.9-61.9c0-34.2,27.8-61.9,61.9-61.9s61.9,27.8,61.9,61.9
		C2498.8-966.1,2471-938.3,2436.9-938.3z M2436.9-1054.2c-29.7,0-53.9,24.2-53.9,53.9c0,29.7,24.2,53.9,53.9,53.9
		s53.9-24.2,53.9-53.9C2490.8-1030,2466.6-1054.2,2436.9-1054.2z M2436.9-808.3c-34.2,0-61.9-27.8-61.9-61.9s27.8-61.9,61.9-61.9
		s61.9,27.8,61.9,61.9S2471-808.3,2436.9-808.3z M2436.9-924.2c-29.7,0-53.9,24.2-53.9,53.9s24.2,53.9,53.9,53.9
		s53.9-24.2,53.9-53.9S2466.6-924.2,2436.9-924.2z"/>
	<path fill="#00FF8B" d="M3086.9-938.3c-34.2,0-61.9-27.8-61.9-61.9c0-34.2,27.8-61.9,61.9-61.9s61.9,27.8,61.9,61.9
		C3148.8-966.1,3121-938.3,3086.9-938.3z M3086.9-1054.2c-29.7,0-53.9,24.2-53.9,53.9c0,29.7,24.2,53.9,53.9,53.9
		s53.9-24.2,53.9-53.9C3140.8-1030,3116.6-1054.2,3086.9-1054.2z M3086.9-808.3c-34.2,0-61.9-27.8-61.9-61.9s27.8-61.9,61.9-61.9
		s61.9,27.8,61.9,61.9S3121-808.3,3086.9-808.3z M3086.9-924.2c-29.7,0-53.9,24.2-53.9,53.9s24.2,53.9,53.9,53.9
		s53.9-24.2,53.9-53.9S3116.6-924.2,3086.9-924.2z"/>
	<path fill="#00FFB6" d="M2436.9-678.3c-34.2,0-61.9-27.8-61.9-61.9s27.8-61.9,61.9-61.9s61.9,27.8,61.9,61.9
		S2471-678.3,2436.9-678.3z M2436.9-794.2c-29.7,0-53.9,24.2-53.9,53.9s24.2,53.9,53.9,53.9s53.9-24.2,53.9-53.9
		S2466.6-794.2,2436.9-794.2z"/>
	<path fill="#00FF79" d="M2566.9-678.3c-34.2,0-61.9-27.8-61.9-61.9s27.8-61.9,61.9-61.9s61.9,27.8,61.9,61.9
		S2601-678.3,2566.9-678.3z M2566.9-794.2c-29.7,0-53.9,24.2-53.9,53.9s24.2,53.9,53.9,53.9s53.9-24.2,53.9-53.9
		S2596.6-794.2,2566.9-794.2z"/>
	<path fill="#00FFB6" d="M2696.9-938.3c-34.2,0-61.9-27.8-61.9-61.9c0-34.2,27.8-61.9,61.9-61.9s61.9,27.8,61.9,61.9
		C2758.8-966.1,2731-938.3,2696.9-938.3z M2696.9-1054.2c-29.7,0-53.9,24.2-53.9,53.9c0,29.7,24.2,53.9,53.9,53.9
		s53.9-24.2,53.9-53.9C2750.8-1030,2726.6-1054.2,2696.9-1054.2z M2696.9-808.3c-34.2,0-61.9-27.8-61.9-61.9s27.8-61.9,61.9-61.9
		s61.9,27.8,61.9,61.9S2731-808.3,2696.9-808.3z M2696.9-924.2c-29.7,0-53.9,24.2-53.9,53.9s24.2,53.9,53.9,53.9
		s53.9-24.2,53.9-53.9S2726.6-924.2,2696.9-924.2z M2696.9-678.3c-34.2,0-61.9-27.8-61.9-61.9s27.8-61.9,61.9-61.9
		s61.9,27.8,61.9,61.9S2731-678.3,2696.9-678.3z M2696.9-794.2c-29.7,0-53.9,24.2-53.9,53.9s24.2,53.9,53.9,53.9
		s53.9-24.2,53.9-53.9S2726.6-794.2,2696.9-794.2z"/>
	<path fill="#00FFE0" d="M2826.9-678.3c-34.2,0-61.9-27.8-61.9-61.9s27.8-61.9,61.9-61.9s61.9,27.8,61.9,61.9
		S2861-678.3,2826.9-678.3z M2826.9-794.2c-29.7,0-53.9,24.2-53.9,53.9s24.2,53.9,53.9,53.9s53.9-24.2,53.9-53.9
		S2856.6-794.2,2826.9-794.2z"/>
	<path fill="#00FFB6" d="M2956.9-678.3c-34.2,0-61.9-27.8-61.9-61.9s27.8-61.9,61.9-61.9s61.9,27.8,61.9,61.9
		S2991-678.3,2956.9-678.3z M2956.9-794.2c-29.7,0-53.9,24.2-53.9,53.9s24.2,53.9,53.9,53.9s53.9-24.2,53.9-53.9
		S2986.6-794.2,2956.9-794.2z"/>
	<path fill="#00FFE6" d="M3086.9-678.3c-34.2,0-61.9-27.8-61.9-61.9s27.8-61.9,61.9-61.9s61.9,27.8,61.9,61.9
		S3121-678.3,3086.9-678.3z M3086.9-794.2c-29.7,0-53.9,24.2-53.9,53.9s24.2,53.9,53.9,53.9s53.9-24.2,53.9-53.9
		S3116.6-794.2,3086.9-794.2z"/>
</g>
<path fill="#E2E2E2" d="M86.9,151.8c-34.2,0-61.9-27.8-61.9-61.9S52.7,28,86.9,28s61.9,27.8,61.9,61.9S121,151.8,86.9,151.8z
	 M86.9,36c-29.7,0-53.9,24.2-53.9,53.9s24.2,53.9,53.9,53.9s53.9-24.2,53.9-53.9S116.6,36,86.9,36z M216.9,151.8
	c-34.2,0-61.9-27.8-61.9-61.9S182.7,28,216.9,28s61.9,27.8,61.9,61.9S251,151.8,216.9,151.8z M216.9,36c-29.7,0-53.9,24.2-53.9,53.9
	s24.2,53.9,53.9,53.9s53.9-24.2,53.9-53.9S246.6,36,216.9,36z M346.9,151.8c-34.2,0-61.9-27.8-61.9-61.9S312.7,28,346.9,28
	s61.9,27.8,61.9,61.9S381,151.8,346.9,151.8z M346.9,36c-29.7,0-53.9,24.2-53.9,53.9s24.2,53.9,53.9,53.9s53.9-24.2,53.9-53.9
	S376.6,36,346.9,36z M476.9,151.8c-34.2,0-61.9-27.8-61.9-61.9S442.7,28,476.9,28s61.9,27.8,61.9,61.9S511,151.8,476.9,151.8z
	 M476.9,36c-29.7,0-53.9,24.2-53.9,53.9s24.2,53.9,53.9,53.9s53.9-24.2,53.9-53.9S506.6,36,476.9,36z M606.9,151.8
	c-34.2,0-61.9-27.8-61.9-61.9S572.7,28,606.9,28s61.9,27.8,61.9,61.9S641,151.8,606.9,151.8z M606.9,36c-29.7,0-53.9,24.2-53.9,53.9
	s24.2,53.9,53.9,53.9s53.9-24.2,53.9-53.9S636.6,36,606.9,36z M736.9,151.8c-34.2,0-61.9-27.8-61.9-61.9S702.7,28,736.9,28
	s61.9,27.8,61.9,61.9S771,151.8,736.9,151.8z M736.9,36c-29.7,0-53.9,24.2-53.9,53.9s24.2,53.9,53.9,53.9s53.9-24.2,53.9-53.9
	S766.6,36,736.9,36z M86.9,281.8c-34.2,0-61.9-27.8-61.9-61.9S52.7,158,86.9,158s61.9,27.8,61.9,61.9S121,281.8,86.9,281.8z
	 M86.9,166c-29.7,0-53.9,24.2-53.9,53.9s24.2,53.9,53.9,53.9s53.9-24.2,53.9-53.9S116.6,166,86.9,166z M216.9,281.8
	c-34.2,0-61.9-27.8-61.9-61.9s27.8-61.9,61.9-61.9s61.9,27.8,61.9,61.9S251,281.8,216.9,281.8z M216.9,166
	c-29.7,0-53.9,24.2-53.9,53.9s24.2,53.9,53.9,53.9s53.9-24.2,53.9-53.9S246.6,166,216.9,166z M346.9,281.8
	c-34.2,0-61.9-27.8-61.9-61.9s27.8-61.9,61.9-61.9s61.9,27.8,61.9,61.9S381,281.8,346.9,281.8z M346.9,166
	c-29.7,0-53.9,24.2-53.9,53.9s24.2,53.9,53.9,53.9s53.9-24.2,53.9-53.9S376.6,166,346.9,166z M476.9,281.8
	c-34.2,0-61.9-27.8-61.9-61.9s27.8-61.9,61.9-61.9s61.9,27.8,61.9,61.9S511,281.8,476.9,281.8z M476.9,166
	c-29.7,0-53.9,24.2-53.9,53.9s24.2,53.9,53.9,53.9s53.9-24.2,53.9-53.9S506.6,166,476.9,166z M606.9,281.8
	c-34.2,0-61.9-27.8-61.9-61.9s27.8-61.9,61.9-61.9s61.9,27.8,61.9,61.9S641,281.8,606.9,281.8z M606.9,166
	c-29.7,0-53.9,24.2-53.9,53.9s24.2,53.9,53.9,53.9s53.9-24.2,53.9-53.9S636.6,166,606.9,166z M736.9,281.8
	c-34.2,0-61.9-27.8-61.9-61.9s27.8-61.9,61.9-61.9s61.9,27.8,61.9,61.9S771,281.8,736.9,281.8z M736.9,166
	c-29.7,0-53.9,24.2-53.9,53.9s24.2,53.9,53.9,53.9s53.9-24.2,53.9-53.9S766.6,166,736.9,166z M86.9,411.8
	c-34.2,0-61.9-27.8-61.9-61.9S52.7,288,86.9,288s61.9,27.8,61.9,61.9S121,411.8,86.9,411.8z M86.9,296c-29.7,0-53.9,24.2-53.9,53.9
	s24.2,53.9,53.9,53.9s53.9-24.2,53.9-53.9S116.6,296,86.9,296z M216.9,411.8c-34.2,0-61.9-27.8-61.9-61.9s27.8-61.9,61.9-61.9
	s61.9,27.8,61.9,61.9S251,411.8,216.9,411.8z M216.9,296c-29.7,0-53.9,24.2-53.9,53.9s24.2,53.9,53.9,53.9s53.9-24.2,53.9-53.9
	S246.6,296,216.9,296z M346.9,411.8c-34.2,0-61.9-27.8-61.9-61.9s27.8-61.9,61.9-61.9s61.9,27.8,61.9,61.9S381,411.8,346.9,411.8z
	 M346.9,296c-29.7,0-53.9,24.2-53.9,53.9s24.2,53.9,53.9,53.9s53.9-24.2,53.9-53.9S376.6,296,346.9,296z M476.9,411.8
	c-34.2,0-61.9-27.8-61.9-61.9s27.8-61.9,61.9-61.9s61.9,27.8,61.9,61.9S511,411.8,476.9,411.8z M476.9,296
	c-29.7,0-53.9,24.2-53.9,53.9s24.2,53.9,53.9,53.9s53.9-24.2,53.9-53.9S506.6,296,476.9,296z M606.9,411.8
	c-34.2,0-61.9-27.8-61.9-61.9s27.8-61.9,61.9-61.9s61.9,27.8,61.9,61.9S641,411.8,606.9,411.8z M606.9,296
	c-29.7,0-53.9,24.2-53.9,53.9s24.2,53.9,53.9,53.9s53.9-24.2,53.9-53.9S636.6,296,606.9,296z M736.9,411.8
	c-34.2,0-61.9-27.8-61.9-61.9s27.8-61.9,61.9-61.9s61.9,27.8,61.9,61.9S771,411.8,736.9,411.8z M736.9,296
	c-29.7,0-53.9,24.2-53.9,53.9s24.2,53.9,53.9,53.9s53.9-24.2,53.9-53.9S766.6,296,736.9,296z M86.9,541.8
	c-34.2,0-61.9-27.8-61.9-61.9S52.7,418,86.9,418s61.9,27.8,61.9,61.9S121,541.8,86.9,541.8z M86.9,426c-29.7,0-53.9,24.2-53.9,53.9
	s24.2,53.9,53.9,53.9s53.9-24.2,53.9-53.9S116.6,426,86.9,426z M216.9,541.8c-34.2,0-61.9-27.8-61.9-61.9s27.8-61.9,61.9-61.9
	s61.9,27.8,61.9,61.9S251,541.8,216.9,541.8z M216.9,426c-29.7,0-53.9,24.2-53.9,53.9s24.2,53.9,53.9,53.9s53.9-24.2,53.9-53.9
	S246.6,426,216.9,426z M346.9,541.8c-34.2,0-61.9-27.8-61.9-61.9s27.8-61.9,61.9-61.9s61.9,27.8,61.9,61.9S381,541.8,346.9,541.8z
	 M346.9,426c-29.7,0-53.9,24.2-53.9,53.9s24.2,53.9,53.9,53.9s53.9-24.2,53.9-53.9S376.6,426,346.9,426z M476.9,541.8
	c-34.2,0-61.9-27.8-61.9-61.9s27.8-61.9,61.9-61.9s61.9,27.8,61.9,61.9S511,541.8,476.9,541.8z M476.9,426
	c-29.7,0-53.9,24.2-53.9,53.9s24.2,53.9,53.9,53.9s53.9-24.2,53.9-53.9S506.6,426,476.9,426z M606.9,541.8
	c-34.2,0-61.9-27.8-61.9-61.9s27.8-61.9,61.9-61.9s61.9,27.8,61.9,61.9S641,541.8,606.9,541.8z M606.9,426
	c-29.7,0-53.9,24.2-53.9,53.9s24.2,53.9,53.9,53.9s53.9-24.2,53.9-53.9S636.6,426,606.9,426z M736.9,541.8
	c-34.2,0-61.9-27.8-61.9-61.9s27.8-61.9,61.9-61.9s61.9,27.8,61.9,61.9S771,541.8,736.9,541.8z M736.9,426
	c-29.7,0-53.9,24.2-53.9,53.9s24.2,53.9,53.9,53.9s53.9-24.2,53.9-53.9S766.6,426,736.9,426z M86.9,671.8
	c-34.2,0-61.9-27.8-61.9-61.9S52.7,548,86.9,548s61.9,27.8,61.9,61.9S121,671.8,86.9,671.8z M86.9,556c-29.7,0-53.9,24.2-53.9,53.9
	s24.2,53.9,53.9,53.9s53.9-24.2,53.9-53.9S116.6,556,86.9,556z M216.9,671.8c-34.2,0-61.9-27.8-61.9-61.9s27.8-61.9,61.9-61.9
	s61.9,27.8,61.9,61.9S251,671.8,216.9,671.8z M216.9,556c-29.7,0-53.9,24.2-53.9,53.9s24.2,53.9,53.9,53.9s53.9-24.2,53.9-53.9
	S246.6,556,216.9,556z M346.9,671.8c-34.2,0-61.9-27.8-61.9-61.9s27.8-61.9,61.9-61.9s61.9,27.8,61.9,61.9S381,671.8,346.9,671.8z
	 M346.9,556c-29.7,0-53.9,24.2-53.9,53.9s24.2,53.9,53.9,53.9s53.9-24.2,53.9-53.9S376.6,556,346.9,556z M476.9,671.8
	c-34.2,0-61.9-27.8-61.9-61.9s27.8-61.9,61.9-61.9s61.9,27.8,61.9,61.9S511,671.8,476.9,671.8z M476.9,556
	c-29.7,0-53.9,24.2-53.9,53.9s24.2,53.9,53.9,53.9s53.9-24.2,53.9-53.9S506.6,556,476.9,556z M606.9,671.8
	c-34.2,0-61.9-27.8-61.9-61.9s27.8-61.9,61.9-61.9s61.9,27.8,61.9,61.9S641,671.8,606.9,671.8z M606.9,556
	c-29.7,0-53.9,24.2-53.9,53.9s24.2,53.9,53.9,53.9s53.9-24.2,53.9-53.9S636.6,556,606.9,556z M736.9,671.8
	c-34.2,0-61.9-27.8-61.9-61.9s27.8-61.9,61.9-61.9s61.9,27.8,61.9,61.9S771,671.8,736.9,671.8z M736.9,556
	c-29.7,0-53.9,24.2-53.9,53.9s24.2,53.9,53.9,53.9s53.9-24.2,53.9-53.9S766.6,556,736.9,556z M86.9,801.8
	c-34.2,0-61.9-27.8-61.9-61.9S52.7,678,86.9,678s61.9,27.8,61.9,61.9S121,801.8,86.9,801.8z M86.9,686c-29.7,0-53.9,24.2-53.9,53.9
	s24.2,53.9,53.9,53.9s53.9-24.2,53.9-53.9S116.6,686,86.9,686z M216.9,801.8c-34.2,0-61.9-27.8-61.9-61.9s27.8-61.9,61.9-61.9
	s61.9,27.8,61.9,61.9S251,801.8,216.9,801.8z M216.9,686c-29.7,0-53.9,24.2-53.9,53.9s24.2,53.9,53.9,53.9s53.9-24.2,53.9-53.9
	S246.6,686,216.9,686z M346.9,801.8c-34.2,0-61.9-27.8-61.9-61.9s27.8-61.9,61.9-61.9s61.9,27.8,61.9,61.9S381,801.8,346.9,801.8z
	 M346.9,686c-29.7,0-53.9,24.2-53.9,53.9s24.2,53.9,53.9,53.9s53.9-24.2,53.9-53.9S376.6,686,346.9,686z M476.9,801.8
	c-34.2,0-61.9-27.8-61.9-61.9s27.8-61.9,61.9-61.9s61.9,27.8,61.9,61.9S511,801.8,476.9,801.8z M476.9,686
	c-29.7,0-53.9,24.2-53.9,53.9s24.2,53.9,53.9,53.9s53.9-24.2,53.9-53.9S506.6,686,476.9,686z M606.9,801.8
	c-34.2,0-61.9-27.8-61.9-61.9s27.8-61.9,61.9-61.9s61.9,27.8,61.9,61.9S641,801.8,606.9,801.8z M606.9,686
	c-29.7,0-53.9,24.2-53.9,53.9s24.2,53.9,53.9,53.9s53.9-24.2,53.9-53.9S636.6,686,606.9,686z M736.9,801.8
	c-34.2,0-61.9-27.8-61.9-61.9s27.8-61.9,61.9-61.9s61.9,27.8,61.9,61.9S771,801.8,736.9,801.8z M736.9,686
	c-29.7,0-53.9,24.2-53.9,53.9s24.2,53.9,53.9,53.9s53.9-24.2,53.9-53.9S766.6,686,736.9,686z"/>
<path fill="#F573FF" d="M86.9,151.8c-34.2,0-61.9-27.8-61.9-61.9S52.7,28,86.9,28s61.9,27.8,61.9,61.9S121,151.8,86.9,151.8z
	 M86.9,36c-29.7,0-53.9,24.2-53.9,53.9s24.2,53.9,53.9,53.9s53.9-24.2,53.9-53.9S116.6,36,86.9,36z M216.9,151.8
	c-34.2,0-61.9-27.8-61.9-61.9S182.7,28,216.9,28s61.9,27.8,61.9,61.9S251,151.8,216.9,151.8z M216.9,36c-29.7,0-53.9,24.2-53.9,53.9
	s24.2,53.9,53.9,53.9s53.9-24.2,53.9-53.9S246.6,36,216.9,36z M86.9,281.8c-34.2,0-61.9-27.8-61.9-61.9S52.7,158,86.9,158
	s61.9,27.8,61.9,61.9S121,281.8,86.9,281.8z M86.9,166c-29.7,0-53.9,24.2-53.9,53.9s24.2,53.9,53.9,53.9s53.9-24.2,53.9-53.9
	S116.6,166,86.9,166z M86.9,411.8c-34.2,0-61.9-27.8-61.9-61.9S52.7,288,86.9,288s61.9,27.8,61.9,61.9S121,411.8,86.9,411.8z
	 M86.9,296c-29.7,0-53.9,24.2-53.9,53.9s24.2,53.9,53.9,53.9s53.9-24.2,53.9-53.9S116.6,296,86.9,296z M216.9,411.8
	c-34.2,0-61.9-27.8-61.9-61.9s27.8-61.9,61.9-61.9s61.9,27.8,61.9,61.9S251,411.8,216.9,411.8z M216.9,296
	c-29.7,0-53.9,24.2-53.9,53.9s24.2,53.9,53.9,53.9s53.9-24.2,53.9-53.9S246.6,296,216.9,296z"/>
<path fill="#B576FF" d="M346.9,151.8c-34.2,0-61.9-27.8-61.9-61.9S312.7,28,346.9,28s61.9,27.8,61.9,61.9S381,151.8,346.9,151.8z
	 M346.9,36c-29.7,0-53.9,24.2-53.9,53.9s24.2,53.9,53.9,53.9s53.9-24.2,53.9-53.9S376.6,36,346.9,36z M476.9,151.8
	c-34.2,0-61.9-27.8-61.9-61.9S442.7,28,476.9,28s61.9,27.8,61.9,61.9S511,151.8,476.9,151.8z M476.9,36c-29.7,0-53.9,24.2-53.9,53.9
	s24.2,53.9,53.9,53.9s53.9-24.2,53.9-53.9S506.6,36,476.9,36z M346.9,411.8c-34.2,0-61.9-27.8-61.9-61.9s27.8-61.9,61.9-61.9
	s61.9,27.8,61.9,61.9S381,411.8,346.9,411.8z M346.9,296c-29.7,0-53.9,24.2-53.9,53.9s24.2,53.9,53.9,53.9s53.9-24.2,53.9-53.9
	S376.6,296,346.9,296z M476.9,411.8c-34.2,0-61.9-27.8-61.9-61.9s27.8-61.9,61.9-61.9s61.9,27.8,61.9,61.9S511,411.8,476.9,411.8z
	 M476.9,296c-29.7,0-53.9,24.2-53.9,53.9s24.2,53.9,53.9,53.9s53.9-24.2,53.9-53.9S506.6,296,476.9,296z"/>
<path fill="#F573FF" d="M606.9,151.8c-34.2,0-61.9-27.8-61.9-61.9S572.7,28,606.9,28s61.9,27.8,61.9,61.9S641,151.8,606.9,151.8z
	 M606.9,36c-29.7,0-53.9,24.2-53.9,53.9s24.2,53.9,53.9,53.9s53.9-24.2,53.9-53.9S636.6,36,606.9,36z M736.9,151.8
	c-34.2,0-61.9-27.8-61.9-61.9S702.7,28,736.9,28s61.9,27.8,61.9,61.9S771,151.8,736.9,151.8z M736.9,36c-29.7,0-53.9,24.2-53.9,53.9
	s24.2,53.9,53.9,53.9s53.9-24.2,53.9-53.9S766.6,36,736.9,36z M606.9,411.8c-34.2,0-61.9-27.8-61.9-61.9s27.8-61.9,61.9-61.9
	s61.9,27.8,61.9,61.9S641,411.8,606.9,411.8z M606.9,296c-29.7,0-53.9,24.2-53.9,53.9s24.2,53.9,53.9,53.9s53.9-24.2,53.9-53.9
	S636.6,296,606.9,296z M736.9,411.8c-34.2,0-61.9-27.8-61.9-61.9s27.8-61.9,61.9-61.9s61.9,27.8,61.9,61.9S771,411.8,736.9,411.8z
	 M736.9,296c-29.7,0-53.9,24.2-53.9,53.9s24.2,53.9,53.9,53.9s53.9-24.2,53.9-53.9S766.6,296,736.9,296z"/>
<path fill="#D776FF" d="M86.9,801.8c-34.2,0-61.9-27.8-61.9-61.9S52.7,678,86.9,678s61.9,27.8,61.9,61.9S121,801.8,86.9,801.8z
	 M86.9,686c-29.7,0-53.9,24.2-53.9,53.9s24.2,53.9,53.9,53.9s53.9-24.2,53.9-53.9S116.6,686,86.9,686z M216.9,801.8
	c-34.2,0-61.9-27.8-61.9-61.9s27.8-61.9,61.9-61.9s61.9,27.8,61.9,61.9S251,801.8,216.9,801.8z M216.9,686
	c-29.7,0-53.9,24.2-53.9,53.9s24.2,53.9,53.9,53.9s53.9-24.2,53.9-53.9S246.6,686,216.9,686z"/>
<path fill="#FF7697" d="M736.9,541.8c-34.2,0-61.9-27.8-61.9-61.9s27.8-61.9,61.9-61.9s61.9,27.8,61.9,61.9S771,541.8,736.9,541.8z
	 M736.9,426c-29.7,0-53.9,24.2-53.9,53.9s24.2,53.9,53.9,53.9s53.9-24.2,53.9-53.9S766.6,426,736.9,426z M736.9,671.8
	c-34.2,0-61.9-27.8-61.9-61.9s27.8-61.9,61.9-61.9s61.9,27.8,61.9,61.9S771,671.8,736.9,671.8z M736.9,556
	c-29.7,0-53.9,24.2-53.9,53.9s24.2,53.9,53.9,53.9s53.9-24.2,53.9-53.9S766.6,556,736.9,556z M346.9,801.8
	c-34.2,0-61.9-27.8-61.9-61.9s27.8-61.9,61.9-61.9s61.9,27.8,61.9,61.9S381,801.8,346.9,801.8z M346.9,686
	c-29.7,0-53.9,24.2-53.9,53.9s24.2,53.9,53.9,53.9s53.9-24.2,53.9-53.9S376.6,686,346.9,686z M476.9,801.8
	c-34.2,0-61.9-27.8-61.9-61.9s27.8-61.9,61.9-61.9s61.9,27.8,61.9,61.9S511,801.8,476.9,801.8z M476.9,686
	c-29.7,0-53.9,24.2-53.9,53.9s24.2,53.9,53.9,53.9s53.9-24.2,53.9-53.9S506.6,686,476.9,686z M606.9,801.8
	c-34.2,0-61.9-27.8-61.9-61.9s27.8-61.9,61.9-61.9s61.9,27.8,61.9,61.9S641,801.8,606.9,801.8z M606.9,686
	c-29.7,0-53.9,24.2-53.9,53.9s24.2,53.9,53.9,53.9s53.9-24.2,53.9-53.9S636.6,686,606.9,686z M736.9,801.8
	c-34.2,0-61.9-27.8-61.9-61.9s27.8-61.9,61.9-61.9s61.9,27.8,61.9,61.9S771,801.8,736.9,801.8z M736.9,686
	c-29.7,0-53.9,24.2-53.9,53.9s24.2,53.9,53.9,53.9s53.9-24.2,53.9-53.9S766.6,686,736.9,686z"/>
</svg>
