<?xml version="1.0" encoding="utf-8"?>
<!-- Generator: Adobe Illustrator 18.0.0, SVG Export Plug-In . SVG Version: 6.00 Build 0)  -->
<!DOCTYPE svg PUBLIC "-//W3C//DTD SVG 1.1//EN" "http://www.w3.org/Graphics/SVG/1.1/DTD/svg11.dtd">
<svg version="1.1" id="图层_1" xmlns="http://www.w3.org/2000/svg" xmlns:xlink="http://www.w3.org/1999/xlink" x="0px" y="0px"
	 width="826.3px" height="826.8px" viewBox="0 0 826.3 826.8" enable-background="new 0 0 826.3 826.8" xml:space="preserve">
<path fill="#E2E2E2" d="M86.9,151.7c-34.2,0-61.9-27.8-61.9-61.9s27.8-61.9,61.9-61.9s61.9,27.8,61.9,61.9S121,151.7,86.9,151.7z
	 M86.9,35.8c-29.7,0-53.9,24.2-53.9,53.9s24.2,53.9,53.9,53.9s53.9-24.2,53.9-53.9S116.6,35.8,86.9,35.8z M216.9,151.7
	c-34.2,0-61.9-27.8-61.9-61.9s27.8-61.9,61.9-61.9s61.9,27.8,61.9,61.9S251,151.7,216.9,151.7z M216.9,35.8
	c-29.7,0-53.9,24.2-53.9,53.9s24.2,53.9,53.9,53.9s53.9-24.2,53.9-53.9S246.6,35.8,216.9,35.8z M346.9,151.7
	c-34.2,0-61.9-27.8-61.9-61.9s27.8-61.9,61.9-61.9s61.9,27.8,61.9,61.9S381,151.7,346.9,151.7z M346.9,35.8
	c-29.7,0-53.9,24.2-53.9,53.9s24.2,53.9,53.9,53.9s53.9-24.2,53.9-53.9S376.6,35.8,346.9,35.8z M476.9,151.7
	c-34.2,0-61.9-27.8-61.9-61.9s27.8-61.9,61.9-61.9s61.9,27.8,61.9,61.9S511,151.7,476.9,151.7z M476.9,35.8
	c-29.7,0-53.9,24.2-53.9,53.9s24.2,53.9,53.9,53.9s53.9-24.2,53.9-53.9S506.6,35.8,476.9,35.8z M606.9,151.7
	c-34.2,0-61.9-27.8-61.9-61.9s27.8-61.9,61.9-61.9s61.9,27.8,61.9,61.9S641,151.7,606.9,151.7z M606.9,35.8
	c-29.7,0-53.9,24.2-53.9,53.9s24.2,53.9,53.9,53.9s53.9-24.2,53.9-53.9S636.6,35.8,606.9,35.8z M736.9,151.7
	c-34.2,0-61.9-27.8-61.9-61.9s27.8-61.9,61.9-61.9s61.9,27.8,61.9,61.9S771,151.7,736.9,151.7z M736.9,35.8
	c-29.7,0-53.9,24.2-53.9,53.9s24.2,53.9,53.9,53.9s53.9-24.2,53.9-53.9S766.6,35.8,736.9,35.8z M86.9,281.7
	c-34.2,0-61.9-27.8-61.9-61.9s27.8-61.9,61.9-61.9s61.9,27.8,61.9,61.9S121,281.7,86.9,281.7z M86.9,165.8
	c-29.7,0-53.9,24.2-53.9,53.9s24.2,53.9,53.9,53.9s53.9-24.2,53.9-53.9S116.6,165.8,86.9,165.8z M216.9,281.7
	c-34.2,0-61.9-27.8-61.9-61.9s27.8-61.9,61.9-61.9s61.9,27.8,61.9,61.9S251,281.7,216.9,281.7z M216.9,165.8
	c-29.7,0-53.9,24.2-53.9,53.9s24.2,53.9,53.9,53.9s53.9-24.2,53.9-53.9S246.6,165.8,216.9,165.8z M346.9,281.7
	c-34.2,0-61.9-27.8-61.9-61.9s27.8-61.9,61.9-61.9s61.9,27.8,61.9,61.9S381,281.7,346.9,281.7z M346.9,165.8
	c-29.7,0-53.9,24.2-53.9,53.9s24.2,53.9,53.9,53.9s53.9-24.2,53.9-53.9S376.6,165.8,346.9,165.8z M476.9,281.7
	c-34.2,0-61.9-27.8-61.9-61.9s27.8-61.9,61.9-61.9s61.9,27.8,61.9,61.9S511,281.7,476.9,281.7z M476.9,165.8
	c-29.7,0-53.9,24.2-53.9,53.9s24.2,53.9,53.9,53.9s53.9-24.2,53.9-53.9S506.6,165.8,476.9,165.8z M606.9,281.7
	c-34.2,0-61.9-27.8-61.9-61.9s27.8-61.9,61.9-61.9s61.9,27.8,61.9,61.9S641,281.7,606.9,281.7z M606.9,165.8
	c-29.7,0-53.9,24.2-53.9,53.9s24.2,53.9,53.9,53.9s53.9-24.2,53.9-53.9S636.6,165.8,606.9,165.8z M736.9,281.7
	c-34.2,0-61.9-27.8-61.9-61.9s27.8-61.9,61.9-61.9s61.9,27.8,61.9,61.9S771,281.7,736.9,281.7z M736.9,165.8
	c-29.7,0-53.9,24.2-53.9,53.9s24.2,53.9,53.9,53.9s53.9-24.2,53.9-53.9S766.6,165.8,736.9,165.8z M86.9,411.7
	c-34.2,0-61.9-27.8-61.9-61.9s27.8-61.9,61.9-61.9s61.9,27.8,61.9,61.9S121,411.7,86.9,411.7z M86.9,295.8
	c-29.7,0-53.9,24.2-53.9,53.9s24.2,53.9,53.9,53.9s53.9-24.2,53.9-53.9S116.6,295.8,86.9,295.8z M216.9,411.7
	c-34.2,0-61.9-27.8-61.9-61.9s27.8-61.9,61.9-61.9s61.9,27.8,61.9,61.9S251,411.7,216.9,411.7z M216.9,295.8
	c-29.7,0-53.9,24.2-53.9,53.9s24.2,53.9,53.9,53.9s53.9-24.2,53.9-53.9S246.6,295.8,216.9,295.8z M346.9,411.7
	c-34.2,0-61.9-27.8-61.9-61.9s27.8-61.9,61.9-61.9s61.9,27.8,61.9,61.9S381,411.7,346.9,411.7z M346.9,295.8
	c-29.7,0-53.9,24.2-53.9,53.9s24.2,53.9,53.9,53.9s53.9-24.2,53.9-53.9S376.6,295.8,346.9,295.8z M476.9,411.7
	c-34.2,0-61.9-27.8-61.9-61.9s27.8-61.9,61.9-61.9s61.9,27.8,61.9,61.9S511,411.7,476.9,411.7z M476.9,295.8
	c-29.7,0-53.9,24.2-53.9,53.9s24.2,53.9,53.9,53.9s53.9-24.2,53.9-53.9S506.6,295.8,476.9,295.8z M606.9,411.7
	c-34.2,0-61.9-27.8-61.9-61.9s27.8-61.9,61.9-61.9s61.9,27.8,61.9,61.9S641,411.7,606.9,411.7z M606.9,295.8
	c-29.7,0-53.9,24.2-53.9,53.9s24.2,53.9,53.9,53.9s53.9-24.2,53.9-53.9S636.6,295.8,606.9,295.8z M736.9,411.7
	c-34.2,0-61.9-27.8-61.9-61.9s27.8-61.9,61.9-61.9s61.9,27.8,61.9,61.9S771,411.7,736.9,411.7z M736.9,295.8
	c-29.7,0-53.9,24.2-53.9,53.9s24.2,53.9,53.9,53.9s53.9-24.2,53.9-53.9S766.6,295.8,736.9,295.8z M86.9,541.7
	c-34.2,0-61.9-27.8-61.9-61.9s27.8-61.9,61.9-61.9s61.9,27.8,61.9,61.9S121,541.7,86.9,541.7z M86.9,425.8
	c-29.7,0-53.9,24.2-53.9,53.9s24.2,53.9,53.9,53.9s53.9-24.2,53.9-53.9S116.6,425.8,86.9,425.8z M216.9,541.7
	c-34.2,0-61.9-27.8-61.9-61.9s27.8-61.9,61.9-61.9s61.9,27.8,61.9,61.9S251,541.7,216.9,541.7z M216.9,425.8
	c-29.7,0-53.9,24.2-53.9,53.9s24.2,53.9,53.9,53.9s53.9-24.2,53.9-53.9S246.6,425.8,216.9,425.8z M346.9,541.7
	c-34.2,0-61.9-27.8-61.9-61.9s27.8-61.9,61.9-61.9s61.9,27.8,61.9,61.9S381,541.7,346.9,541.7z M346.9,425.8
	c-29.7,0-53.9,24.2-53.9,53.9s24.2,53.9,53.9,53.9s53.9-24.2,53.9-53.9S376.6,425.8,346.9,425.8z M476.9,541.7
	c-34.2,0-61.9-27.8-61.9-61.9s27.8-61.9,61.9-61.9s61.9,27.8,61.9,61.9S511,541.7,476.9,541.7z M476.9,425.8
	c-29.7,0-53.9,24.2-53.9,53.9s24.2,53.9,53.9,53.9s53.9-24.2,53.9-53.9S506.6,425.8,476.9,425.8z M606.9,541.7
	c-34.2,0-61.9-27.8-61.9-61.9s27.8-61.9,61.9-61.9s61.9,27.8,61.9,61.9S641,541.7,606.9,541.7z M606.9,425.8
	c-29.7,0-53.9,24.2-53.9,53.9s24.2,53.9,53.9,53.9s53.9-24.2,53.9-53.9S636.6,425.8,606.9,425.8z M736.9,541.7
	c-34.2,0-61.9-27.8-61.9-61.9s27.8-61.9,61.9-61.9s61.9,27.8,61.9,61.9S771,541.7,736.9,541.7z M736.9,425.8
	c-29.7,0-53.9,24.2-53.9,53.9s24.2,53.9,53.9,53.9s53.9-24.2,53.9-53.9S766.6,425.8,736.9,425.8z M86.9,671.7
	c-34.2,0-61.9-27.8-61.9-61.9s27.8-61.9,61.9-61.9s61.9,27.8,61.9,61.9S121,671.7,86.9,671.7z M86.9,555.8
	c-29.7,0-53.9,24.2-53.9,53.9s24.2,53.9,53.9,53.9s53.9-24.2,53.9-53.9S116.6,555.8,86.9,555.8z M216.9,671.7
	c-34.2,0-61.9-27.8-61.9-61.9s27.8-61.9,61.9-61.9s61.9,27.8,61.9,61.9S251,671.7,216.9,671.7z M216.9,555.8
	c-29.7,0-53.9,24.2-53.9,53.9s24.2,53.9,53.9,53.9s53.9-24.2,53.9-53.9S246.6,555.8,216.9,555.8z M346.9,671.7
	c-34.2,0-61.9-27.8-61.9-61.9s27.8-61.9,61.9-61.9s61.9,27.8,61.9,61.9S381,671.7,346.9,671.7z M346.9,555.8
	c-29.7,0-53.9,24.2-53.9,53.9s24.2,53.9,53.9,53.9s53.9-24.2,53.9-53.9S376.6,555.8,346.9,555.8z M476.9,671.7
	c-34.2,0-61.9-27.8-61.9-61.9s27.8-61.9,61.9-61.9s61.9,27.8,61.9,61.9S511,671.7,476.9,671.7z M476.9,555.8
	c-29.7,0-53.9,24.2-53.9,53.9s24.2,53.9,53.9,53.9s53.9-24.2,53.9-53.9S506.6,555.8,476.9,555.8z M606.9,671.7
	c-34.2,0-61.9-27.8-61.9-61.9s27.8-61.9,61.9-61.9s61.9,27.8,61.9,61.9S641,671.7,606.9,671.7z M606.9,555.8
	c-29.7,0-53.9,24.2-53.9,53.9s24.2,53.9,53.9,53.9s53.9-24.2,53.9-53.9S636.6,555.8,606.9,555.8z M736.9,671.7
	c-34.2,0-61.9-27.8-61.9-61.9s27.8-61.9,61.9-61.9s61.9,27.8,61.9,61.9S771,671.7,736.9,671.7z M736.9,555.8
	c-29.7,0-53.9,24.2-53.9,53.9s24.2,53.9,53.9,53.9s53.9-24.2,53.9-53.9S766.6,555.8,736.9,555.8z M86.9,801.7
	c-34.2,0-61.9-27.8-61.9-61.9s27.8-61.9,61.9-61.9s61.9,27.8,61.9,61.9S121,801.7,86.9,801.7z M86.9,685.8
	c-29.7,0-53.9,24.2-53.9,53.9s24.2,53.9,53.9,53.9s53.9-24.2,53.9-53.9S116.6,685.8,86.9,685.8z M216.9,801.7
	c-34.2,0-61.9-27.8-61.9-61.9s27.8-61.9,61.9-61.9s61.9,27.8,61.9,61.9S251,801.7,216.9,801.7z M216.9,685.8
	c-29.7,0-53.9,24.2-53.9,53.9s24.2,53.9,53.9,53.9s53.9-24.2,53.9-53.9S246.6,685.8,216.9,685.8z M346.9,801.7
	c-34.2,0-61.9-27.8-61.9-61.9s27.8-61.9,61.9-61.9s61.9,27.8,61.9,61.9S381,801.7,346.9,801.7z M346.9,685.8
	c-29.7,0-53.9,24.2-53.9,53.9s24.2,53.9,53.9,53.9s53.9-24.2,53.9-53.9S376.6,685.8,346.9,685.8z M476.9,801.7
	c-34.2,0-61.9-27.8-61.9-61.9s27.8-61.9,61.9-61.9s61.9,27.8,61.9,61.9S511,801.7,476.9,801.7z M476.9,685.8
	c-29.7,0-53.9,24.2-53.9,53.9s24.2,53.9,53.9,53.9s53.9-24.2,53.9-53.9S506.6,685.8,476.9,685.8z M606.9,801.7
	c-34.2,0-61.9-27.8-61.9-61.9s27.8-61.9,61.9-61.9s61.9,27.8,61.9,61.9S641,801.7,606.9,801.7z M606.9,685.8
	c-29.7,0-53.9,24.2-53.9,53.9s24.2,53.9,53.9,53.9s53.9-24.2,53.9-53.9S636.6,685.8,606.9,685.8z M736.9,801.7
	c-34.2,0-61.9-27.8-61.9-61.9s27.8-61.9,61.9-61.9s61.9,27.8,61.9,61.9S771,801.7,736.9,801.7z M736.9,685.8
	c-29.7,0-53.9,24.2-53.9,53.9s24.2,53.9,53.9,53.9s53.9-24.2,53.9-53.9S766.6,685.8,736.9,685.8z"/>
<path fill="#00FFB6" d="M736.9,151.7c-34.2,0-61.9-27.8-61.9-61.9s27.8-61.9,61.9-61.9s61.9,27.8,61.9,61.9S771,151.7,736.9,151.7z
	 M736.9,35.8c-29.7,0-53.9,24.2-53.9,53.9s24.2,53.9,53.9,53.9s53.9-24.2,53.9-53.9S766.6,35.8,736.9,35.8z"/>
<path fill="#00FFB6" d="M86.9,151.7c-34.2,0-61.9-27.8-61.9-61.9s27.8-61.9,61.9-61.9s61.9,27.8,61.9,61.9S121,151.7,86.9,151.7z
	 M86.9,35.8c-29.7,0-53.9,24.2-53.9,53.9s24.2,53.9,53.9,53.9s53.9-24.2,53.9-53.9S116.6,35.8,86.9,35.8z M346.9,151.7
	c-34.2,0-61.9-27.8-61.9-61.9s27.8-61.9,61.9-61.9s61.9,27.8,61.9,61.9S381,151.7,346.9,151.7z M346.9,35.8
	c-29.7,0-53.9,24.2-53.9,53.9s24.2,53.9,53.9,53.9s53.9-24.2,53.9-53.9S376.6,35.8,346.9,35.8z M86.9,281.7
	c-34.2,0-61.9-27.8-61.9-61.9s27.8-61.9,61.9-61.9s61.9,27.8,61.9,61.9S121,281.7,86.9,281.7z M86.9,165.8
	c-29.7,0-53.9,24.2-53.9,53.9s24.2,53.9,53.9,53.9s53.9-24.2,53.9-53.9S116.6,165.8,86.9,165.8z M346.9,281.7
	c-34.2,0-61.9-27.8-61.9-61.9s27.8-61.9,61.9-61.9s61.9,27.8,61.9,61.9S381,281.7,346.9,281.7z M346.9,165.8
	c-29.7,0-53.9,24.2-53.9,53.9s24.2,53.9,53.9,53.9s53.9-24.2,53.9-53.9S376.6,165.8,346.9,165.8z"/>
<path fill="#00FFEC" d="M736.9,281.7c-34.2,0-61.9-27.8-61.9-61.9s27.8-61.9,61.9-61.9s61.9,27.8,61.9,61.9S771,281.7,736.9,281.7z
	 M736.9,165.8c-29.7,0-53.9,24.2-53.9,53.9s24.2,53.9,53.9,53.9s53.9-24.2,53.9-53.9S766.6,165.8,736.9,165.8z"/>
<path fill="#00FFB6" d="M86.9,411.7c-34.2,0-61.9-27.8-61.9-61.9s27.8-61.9,61.9-61.9s61.9,27.8,61.9,61.9S121,411.7,86.9,411.7z
	 M86.9,295.8c-29.7,0-53.9,24.2-53.9,53.9s24.2,53.9,53.9,53.9s53.9-24.2,53.9-53.9S116.6,295.8,86.9,295.8z"/>
<path fill="#00FF97" d="M346.9,411.7c-34.2,0-61.9-27.8-61.9-61.9s27.8-61.9,61.9-61.9s61.9,27.8,61.9,61.9S381,411.7,346.9,411.7z
	 M346.9,295.8c-29.7,0-53.9,24.2-53.9,53.9s24.2,53.9,53.9,53.9s53.9-24.2,53.9-53.9S376.6,295.8,346.9,295.8z"/>
<path fill="#00FFB6" d="M736.9,411.7c-34.2,0-61.9-27.8-61.9-61.9s27.8-61.9,61.9-61.9s61.9,27.8,61.9,61.9S771,411.7,736.9,411.7z
	 M736.9,295.8c-29.7,0-53.9,24.2-53.9,53.9s24.2,53.9,53.9,53.9s53.9-24.2,53.9-53.9S766.6,295.8,736.9,295.8z"/>
<path fill="#00FFF2" d="M86.9,541.7c-34.2,0-61.9-27.8-61.9-61.9s27.8-61.9,61.9-61.9s61.9,27.8,61.9,61.9S121,541.7,86.9,541.7z
	 M86.9,425.8c-29.7,0-53.9,24.2-53.9,53.9s24.2,53.9,53.9,53.9s53.9-24.2,53.9-53.9S116.6,425.8,86.9,425.8z M86.9,671.7
	c-34.2,0-61.9-27.8-61.9-61.9s27.8-61.9,61.9-61.9s61.9,27.8,61.9,61.9S121,671.7,86.9,671.7z M86.9,555.8
	c-29.7,0-53.9,24.2-53.9,53.9s24.2,53.9,53.9,53.9s53.9-24.2,53.9-53.9S116.6,555.8,86.9,555.8z"/>
<path fill="#00FF8B" d="M736.9,541.7c-34.2,0-61.9-27.8-61.9-61.9s27.8-61.9,61.9-61.9s61.9,27.8,61.9,61.9S771,541.7,736.9,541.7z
	 M736.9,425.8c-29.7,0-53.9,24.2-53.9,53.9s24.2,53.9,53.9,53.9s53.9-24.2,53.9-53.9S766.6,425.8,736.9,425.8z M736.9,671.7
	c-34.2,0-61.9-27.8-61.9-61.9s27.8-61.9,61.9-61.9s61.9,27.8,61.9,61.9S771,671.7,736.9,671.7z M736.9,555.8
	c-29.7,0-53.9,24.2-53.9,53.9s24.2,53.9,53.9,53.9s53.9-24.2,53.9-53.9S766.6,555.8,736.9,555.8z"/>
<path fill="#00FFB6" d="M86.9,801.7c-34.2,0-61.9-27.8-61.9-61.9s27.8-61.9,61.9-61.9s61.9,27.8,61.9,61.9S121,801.7,86.9,801.7z
	 M86.9,685.8c-29.7,0-53.9,24.2-53.9,53.9s24.2,53.9,53.9,53.9s53.9-24.2,53.9-53.9S116.6,685.8,86.9,685.8z"/>
<path fill="#00FF79" d="M216.9,801.7c-34.2,0-61.9-27.8-61.9-61.9s27.8-61.9,61.9-61.9s61.9,27.8,61.9,61.9S251,801.7,216.9,801.7z
	 M216.9,685.8c-29.7,0-53.9,24.2-53.9,53.9s24.2,53.9,53.9,53.9s53.9-24.2,53.9-53.9S246.6,685.8,216.9,685.8z"/>
<path fill="#00FFB6" d="M346.9,541.7c-34.2,0-61.9-27.8-61.9-61.9s27.8-61.9,61.9-61.9s61.9,27.8,61.9,61.9S381,541.7,346.9,541.7z
	 M346.9,425.8c-29.7,0-53.9,24.2-53.9,53.9s24.2,53.9,53.9,53.9s53.9-24.2,53.9-53.9S376.6,425.8,346.9,425.8z M346.9,671.7
	c-34.2,0-61.9-27.8-61.9-61.9s27.8-61.9,61.9-61.9s61.9,27.8,61.9,61.9S381,671.7,346.9,671.7z M346.9,555.8
	c-29.7,0-53.9,24.2-53.9,53.9s24.2,53.9,53.9,53.9s53.9-24.2,53.9-53.9S376.6,555.8,346.9,555.8z M346.9,801.7
	c-34.2,0-61.9-27.8-61.9-61.9s27.8-61.9,61.9-61.9s61.9,27.8,61.9,61.9S381,801.7,346.9,801.7z M346.9,685.8
	c-29.7,0-53.9,24.2-53.9,53.9s24.2,53.9,53.9,53.9s53.9-24.2,53.9-53.9S376.6,685.8,346.9,685.8z"/>
<path fill="#00FFE0" d="M476.9,801.7c-34.2,0-61.9-27.8-61.9-61.9s27.8-61.9,61.9-61.9s61.9,27.8,61.9,61.9S511,801.7,476.9,801.7z
	 M476.9,685.8c-29.7,0-53.9,24.2-53.9,53.9s24.2,53.9,53.9,53.9s53.9-24.2,53.9-53.9S506.6,685.8,476.9,685.8z"/>
<path fill="#00FFB6" d="M606.9,801.7c-34.2,0-61.9-27.8-61.9-61.9s27.8-61.9,61.9-61.9s61.9,27.8,61.9,61.9S641,801.7,606.9,801.7z
	 M606.9,685.8c-29.7,0-53.9,24.2-53.9,53.9s24.2,53.9,53.9,53.9s53.9-24.2,53.9-53.9S636.6,685.8,606.9,685.8z"/>
<path fill="#00FFE6" d="M736.9,801.7c-34.2,0-61.9-27.8-61.9-61.9s27.8-61.9,61.9-61.9s61.9,27.8,61.9,61.9S771,801.7,736.9,801.7z
	 M736.9,685.8c-29.7,0-53.9,24.2-53.9,53.9s24.2,53.9,53.9,53.9s53.9-24.2,53.9-53.9S766.6,685.8,736.9,685.8z"/>
</svg>
