<?xml version="1.0" encoding="utf-8"?>
<!-- Generator: Adobe Illustrator 18.0.0, SVG Export Plug-In . SVG Version: 6.00 Build 0)  -->
<!DOCTYPE svg PUBLIC "-//W3C//DTD SVG 1.1//EN" "http://www.w3.org/Graphics/SVG/1.1/DTD/svg11.dtd">
<svg version="1.1" id="图层_1" xmlns="http://www.w3.org/2000/svg" xmlns:xlink="http://www.w3.org/1999/xlink" x="0px" y="0px"
	 width="28.7px" height="28.7px" viewBox="0 0 28.7 28.7" enable-background="new 0 0 28.7 28.7" xml:space="preserve">
<g>
	<g>
		<path fill="#EF4136" d="M11.7,7.9c0.7-0.4,1.5-0.7,2.5-0.7c1.3,0,2.4,0.3,3.3,0.9s1.3,1.6,1.3,2.8c0,0.8-0.2,1.4-0.6,1.9
			c-0.2,0.3-0.6,0.7-1.3,1.2l-0.6,0.5c-0.3,0.3-0.6,0.6-0.7,0.9c-0.1,0.2-0.1,0.6-0.1,1h-2.4c0-1,0.1-1.7,0.3-2
			c0.2-0.4,0.5-0.8,1.2-1.3l0.6-0.5c0.2-0.2,0.4-0.3,0.5-0.5c0.2-0.3,0.3-0.7,0.3-1.1c0-0.4-0.1-0.8-0.4-1.2
			c-0.3-0.4-0.7-0.5-1.4-0.5s-1.1,0.2-1.4,0.7c-0.3,0.4-0.4,0.9-0.4,1.4H9.9C10,9.8,10.6,8.6,11.7,7.9z M13.1,17.7h2.6v2.5h-2.6
			V17.7z"/>
	</g>
	<circle fill="none" stroke="#EF4136" stroke-width="3" stroke-miterlimit="10" cx="14.3" cy="13.7" r="11.2"/>
</g>
</svg>
