<?xml version="1.0" encoding="utf-8"?>
<!-- Generator: Adobe Illustrator 18.0.0, SVG Export Plug-In . SVG Version: 6.00 Build 0)  -->
<!DOCTYPE svg PUBLIC "-//W3C//DTD SVG 1.1//EN" "http://www.w3.org/Graphics/SVG/1.1/DTD/svg11.dtd">
<svg version="1.1" id="图层_1" xmlns="http://www.w3.org/2000/svg" xmlns:xlink="http://www.w3.org/1999/xlink" x="0px" y="0px"
	 width="596.1px" height="100px" viewBox="0 0 596.1 100" enable-background="new 0 0 596.1 100" xml:space="preserve">
<g>
	<path fill="#FFFFFF" d="M128.8,72.9c0-1.4,1.2-2.6,2.8-2.6c1.4,0,2.6,1.2,2.6,2.6c0,3.5,2.8,6.4,6.4,6.4c3.5,0,6.2-2.6,6.4-5.9
		l-17.8-43.6c-0.2-0.3-0.3-0.7-0.3-1c0-6.4,5.4-11.8,11.8-11.8c6.4,0,11.8,5.4,11.8,11.8c0,1.4-1.2,2.6-2.8,2.6
		c-1.4,0-2.6-1.2-2.6-2.6c0-3.6-2.9-6.4-6.4-6.4s-6.2,2.6-6.4,5.9L152,71.8c0.2,0.3,0.3,0.7,0.3,1c0,6.4-5.4,11.6-11.8,11.6
		C134.2,84.4,128.8,79.3,128.8,72.9z"/>
	<path fill="#FFFFFF" d="M178.8,82.2l-9-62.1c-0.2-1.6,0.9-2.8,2.2-3.1c1.4-0.2,2.8,0.9,2.9,2.2l6.4,44.5l6.6-44.5
		c0.2-1.4,1.6-2.4,2.9-2.2c1.4,0.3,2.4,1.6,2.3,3.1l-9,62.1c-0.3,1.4-1.4,2.2-2.8,2.2C180.2,84.4,179.1,83.6,178.8,82.2z"/>
	<path fill="#FFFFFF" d="M286.6,72.9V28.7c0-6.4,5.2-11.8,11.8-11.8c6.4,0,11.6,5.4,11.6,11.8v44.1c0,6.4-5.2,11.6-11.6,11.6
		C291.8,84.4,286.6,79.3,286.6,72.9z M291.8,28.7v44.1c0,3.5,2.9,6.4,6.6,6.4c3.5,0,6.4-2.9,6.4-6.4V28.7c0-3.6-2.9-6.4-6.4-6.4
		C294.7,22.3,291.8,25.1,291.8,28.7z"/>
	<path fill="#FFFFFF" d="M327.2,72.9V19.6c0-1.4,1.2-2.6,2.6-2.6s2.6,1.2,2.6,2.6v53.3c0,3.5,2.9,6.4,6.4,6.4c3.6,0,6.4-2.9,6.4-6.4
		V19.6c0-1.4,1.2-2.6,2.8-2.6c1.4,0,2.6,1.2,2.6,2.6v53.3c0,6.4-5.2,11.6-11.8,11.6C332.4,84.4,327.2,79.3,327.2,72.9z"/>
	<path fill="#FFFFFF" d="M386.1,81.9V28.7c0-3.6-2.9-6.4-6.4-6.4c-3.6,0-6.4,2.8-6.4,6.4v53.1c0,1.6-1.2,2.6-2.6,2.6
		c-1.6,0-2.8-1-2.8-2.6V28.7c0-6.4,5.4-11.8,11.8-11.8s11.8,5.4,11.8,11.8v53.1c0,1.6-1.2,2.6-2.8,2.6
		C387.3,84.4,386.1,83.4,386.1,81.9z"/>
	<path fill="#FFFFFF" d="M226.1,54.8c4.5-1.6,7.7-5.9,7.7-10.9v-7.7l0,0v-7.3v-0.1c0-0.1,0-0.2,0-0.3v-0.6l0,0
		c-0.4-6-5.5-10.9-11.7-10.9c-6.4,0-11.6,5.4-11.6,11.8v7.5l0,0V44c0,0.1,0,0.1,0,0.2v10.4l0,0v4.6l0,0v22.7c0,1.6,1.2,2.6,2.6,2.6
		c1.6,0,2.6-1,2.6-2.6V55.4h5.4l7.5,26.8c0.2,1.2,1.2,2.2,2.6,2.2c0.2,0,0.2,0,0.3,0c1.4-0.2,2.4-1.6,2.2-2.9L226.1,54.8z
		 M222.1,22.3c3.6,0,6.5,2.7,6.6,6.2v13.6l0,0v1.7c0,3.5-2.9,6.4-6.4,6.4h-0.1l0,0h-6.5V28.7C215.6,25.1,218.6,22.3,222.1,22.3z"/>
	<path fill="#FFFFFF" d="M271.9,81.5l-7.7-26.7c4.5-1.6,7.7-5.9,7.7-10.9v-7.7l0,0v-7.3v-0.1c0-0.1,0-0.2,0-0.3v-0.6l0,0
		c-0.4-6-5.5-10.9-11.7-10.9c-6.4,0-11.6,5.4-11.6,11.8v7.5l0,0V44c0,0.1,0,0.2,0,0.3v10.3l0,0v4.6l0,0v22.7c0,1.6,1.2,2.6,2.6,2.6
		c1.6,0,2.6-1,2.6-2.6V55.4h5.5l7.5,26.8c0.2,1.2,1.2,2.2,2.6,2.2c0.2,0,0.2,0,0.3,0C271,84.3,272,82.9,271.9,81.5z M260.1,22.3
		c3.6,0,6.4,2.7,6.6,6.2v13.6l0,0v1.7c0,3.5-2.9,6.4-6.4,6.4h-0.1l0,0h-6.5V28.7C253.7,25.1,256.7,22.3,260.1,22.3z"/>
	<path fill="#00EDFF" d="M298.4,75.4c-1.5,0-2.7-1.2-2.7-2.5V29.2c0-1.4,1.2-2.5,2.7-2.5c1.2,0,2.5,0.9,2.5,2.5v43.6
		C300.9,74.2,299.7,75.4,298.4,75.4z"/>
	<path fill="#FFFFFF" d="M409,72.9V29.3c0-13-1-11.6,11.6-11.6c6.3,0,11.5,5.3,11.5,11.6v43.6c0,6.3-5.1,11.5-11.5,11.5
		C407.2,84.4,409,86,409,72.9z M414.1,25.7v50.6c0,3.4-0.9,2.9,6.5,2.9c3.4,0,6.3-2.9,6.3-6.3V29.3c0-3.6-2.9-6.3-6.3-6.3
		C413.8,23,414.1,22.1,414.1,25.7z"/>
</g>
</svg>
